<?xml version="1.0" encoding="UTF-8"?>
<svg version="1.1" xmlns="http://www.w3.org/2000/svg" width="128" height="128">
<path d="M0 0 C42.24 0 84.48 0 128 0 C128 42.24 128 84.48 128 128 C85.76 128 43.52 128 0 128 C0 85.76 0 43.52 0 0 Z " fill="#2B010F" transform="translate(0,0)"/>
<path d="M0 0 C42.24 0 84.48 0 128 0 C128 42.24 128 84.48 128 128 C85.76 128 43.52 128 0 128 C0 85.76 0 43.52 0 0 Z M60 13 C60.495 17.455 60.495 17.455 61 22 C64.3 22 67.6 22 71 22 C71 20.02 71 18.04 71 16 C71.66 16 72.32 16 73 16 C73 18.64 73 21.28 73 24 C71.35 24 69.7 24 68 24 C68 25.98 68 27.96 68 30 C67.34 30 66.68 30 66 30 C66 28.35 66 26.7 66 25 C64.37509046 24.97301811 62.75005367 24.95361243 61.125 24.9375 C60.22007813 24.92589844 59.31515625 24.91429687 58.3828125 24.90234375 C55.9831415 24.83750743 55.9831415 24.83750743 54 26 C53.34786708 28.02463255 53.34786708 28.02463255 53 30 C52.505 28.515 52.505 28.515 52 27 C51.34 27 50.68 27 50 27 C50 26.01 50 25.02 50 24 C52.64 23.67 55.28 23.34 58 23 C58.26932521 18.34947128 58.26932521 18.34947128 57 14 C51.85854377 13.77645842 47.34979348 14.42461376 42.33203125 15.5625 C40 16 40 16 36 16 C36 17.65 36 19.3 36 21 C34.68 21 33.36 21 32 21 C32 21.99 32 22.98 32 24 C31.2575 24.061875 30.515 24.12375 29.75 24.1875 C26.05429407 25.27941311 24.96550622 26.72415631 23 30 C22.66486406 33.20980136 22.66486406 33.20980136 23 36 C22.01 36 21.02 36 20 36 C19.32645501 37.43429001 18.66140299 38.87257057 18 40.3125 C17.62875 41.11300781 17.2575 41.91351563 16.875 42.73828125 C15.81959333 45.06213959 15.81959333 45.06213959 16 48 C15.01 48 14.02 48 13 48 C11.9605225 51.1184325 11.88505162 53.27475586 11.90234375 56.54296875 C11.90556641 57.61611328 11.90878906 58.68925781 11.91210938 59.79492188 C11.92048828 60.91447266 11.92886719 62.03402344 11.9375 63.1875 C11.94201172 64.31865234 11.94652344 65.44980469 11.95117188 66.61523438 C11.96296502 69.41020927 11.9794235 72.2050782 12 75 C12.66 75 13.32 75 14 75 C13.95875 75.845625 13.9175 76.69125 13.875 77.5625 C13.86455003 81.05503793 13.86455003 81.05503793 15 84.5 C15.96701763 87.88456172 16 90.51968364 16 94 C16.66 94.66 17.32 95.32 18 96 C18 95.34 18 94.68 18 94 C20.99324263 95.0975223 21.84610901 95.67682892 23.25 98.625 C23.4975 99.40875 23.745 100.1925 24 101 C25.65 101 27.3 101 29 101 C28.67 102.65 28.34 104.3 28 106 C29.5778125 106.4021875 29.5778125 106.4021875 31.1875 106.8125 C36.04428885 108.3252703 38.98837097 109.93778952 42.5 113.625 C47.33207418 118.21547047 53.87033913 117.15205422 60.1875 117.125 C61.10208984 117.12886719 62.01667969 117.13273437 62.95898438 117.13671875 C64.26899414 117.13478516 64.26899414 117.13478516 65.60546875 117.1328125 C66.40106201 117.13168457 67.19665527 117.13055664 68.01635742 117.12939453 C70.07555521 117.1239077 70.07555521 117.1239077 72 116 C73.91296873 115.68499018 75.8304681 115.39717243 77.75 115.125 C82.38005931 114.38463252 85.90050607 113.34256796 90 111 C91.5159375 110.5359375 91.5159375 110.5359375 93.0625 110.0625 C96.3454983 108.87503253 98.37385479 107.27126072 101 105 C101.99 104.34 102.98 103.68 104 103 C104 102.34 104 101.68 104 101 C104.66 101 105.32 101 106 101 C106.02578125 100.37351562 106.0515625 99.74703125 106.078125 99.1015625 C106.16320312 97.87566406 106.16320312 97.87566406 106.25 96.625 C106.29640625 95.81289062 106.3428125 95.00078125 106.390625 94.1640625 C107 92 107 92 109.046875 90.7109375 C109.69140625 90.47632812 110.3359375 90.24171875 111 90 C111 89.34 111 88.68 111 88 C111.66 88 112.32 88 113 88 C113.33 85.36 113.66 82.72 114 80 C114.66 80 115.32 80 116 80 C119.31753742 70.04738775 117.22164109 55.22221692 112.9375 45.875 C112.59074219 45.19308594 112.24398437 44.51117188 111.88671875 43.80859375 C110.80092298 41.59395303 110.31477708 39.43952238 110 37 C109.34 37 108.68 37 108 37 C107.71125 35.9275 107.4225 34.855 107.125 33.75 C106.75375 32.5125 106.3825 31.275 106 30 C105.690625 28.8553125 105.690625 28.8553125 105.375 27.6875 C102.99963895 24.77228416 99.5943199 24.69567482 96 24 C96 23.34 96 22.68 96 22 C95.319375 21.7525 94.63875 21.505 93.9375 21.25 C91.64007392 20.27237188 89.64003006 19.25498481 87.5 18 C80.51383958 13.94108607 74.19752608 12.85512728 66.125 12.9375 C64.97257812 12.94652344 63.82015625 12.95554687 62.6328125 12.96484375 C61.76398437 12.97644531 60.89515625 12.98804688 60 13 Z " fill="#020101" transform="translate(0,0)"/>
<path d="M0 0 C13.71614985 -0.37126421 13.71614985 -0.37126421 20 2 C21.27230469 2.47179687 21.27230469 2.47179687 22.5703125 2.953125 C29.65956221 5.65956221 29.65956221 5.65956221 32 8 C34.06874034 8.6425235 34.06874034 8.6425235 36 9 C36 9.66 36 10.32 36 11 C36.61488281 11.12375 37.22976562 11.2475 37.86328125 11.375 C44.3590278 13.03260678 44.3590278 13.03260678 46.265625 15.91015625 C47.27987051 18.64961349 48 21.06969651 48 24 C48.66 24 49.32 24 50 24 C50.4021875 25.5159375 50.4021875 25.5159375 50.8125 27.0625 C51.56719826 29.73089744 52.45287655 32.05067359 53.5625 34.625 C55.96052075 40.25513568 56.10231575 44.96337069 56 51 C52.7 51 49.4 51 46 51 C46 50.34 46 49.68 46 49 C42.04 49 38.08 49 34 49 C34 48.34 34 47.68 34 47 C30.04 47 26.08 47 22 47 C21.67 46.34 21.34 45.68 21 45 C20.505 45.99 20.505 45.99 20 47 C18.0390625 47.73828125 18.0390625 47.73828125 15.625 48.3125 C14.83351562 48.51488281 14.04203125 48.71726563 13.2265625 48.92578125 C11 49 11 49 9.45703125 47.5625 C8.97621094 47.046875 8.49539062 46.53125 8 46 C6.700625 45.896875 5.40125 45.79375 4.0625 45.6875 C0.31960787 45.37042258 0.15493085 45.18204375 -2.5 42.0625 C-4 39 -4 39 -4 37 C-0.22777911 35.24836544 2.666639 34.77509973 6.8125 34.875 C7.78832031 34.89304688 8.76414063 34.91109375 9.76953125 34.9296875 C10.87361328 34.96449219 10.87361328 34.96449219 12 35 C12.33 32.03 12.66 29.06 13 26 C17.12751449 26.60698743 20.3321148 28.03810791 24 30 C24 31.32 24 32.64 24 34 C24.99 34 25.98 34 27 34 C28.38671875 35.75 28.38671875 35.75 29.6875 38 C30.12449219 38.7425 30.56148438 39.485 31.01171875 40.25 C31.33785156 40.8275 31.66398437 41.405 32 42 C31.53038362 37.77345256 31.03265502 35.90080046 28 33 C28 31.68 28 30.36 28 29 C26.68 29 25.36 29 24 29 C24 28.34 24 27.68 24 27 C22.02 26.34 20.04 25.68 18 25 C18 24.34 18 23.68 18 23 C15.36 23 12.72 23 10 23 C10.020625 24.27875 10.04125 25.5575 10.0625 26.875 C10.125 30.75 10.125 30.75 9 33 C8.37351563 32.97679687 7.74703125 32.95359375 7.1015625 32.9296875 C6.28429687 32.91164062 5.46703125 32.89359375 4.625 32.875 C3.81289063 32.85179687 3.00078125 32.82859375 2.1640625 32.8046875 C-0.21342243 32.78629949 -0.21342243 32.78629949 -2 35 C-4.53997743 36.26998872 -6.27105484 37.06431869 -9.125 36.8125 C-11 36 -11 36 -12.5 34.375 C-12.995 33.92125 -13.49 33.4675 -14 33 C-16.16299211 33.22757731 -16.16299211 33.22757731 -18 34 C-18 33.01 -18 32.02 -18 31 C-18.99 32.32 -19.98 33.64 -21 35 C-26.75 33.25 -26.75 33.25 -29 31 C-29 31.66 -29 32.32 -29 33 C-27.02 33.99 -25.04 34.98 -23 36 C-23.66 38.97 -24.32 41.94 -25 45 C-26.98 45 -28.96 45 -31 45 C-31 45.66 -31 46.32 -31 47 C-29.35 47.33 -27.7 47.66 -26 48 C-25.96261719 48.68964844 -25.92523438 49.37929688 -25.88671875 50.08984375 C-25.43921852 56.48646465 -24.34350199 62.03070248 -22 68 C-24.8125 70.0625 -24.8125 70.0625 -28 72 C-31 71 -31 71 -31.94921875 69.22265625 C-32.19285156 68.50980469 -32.43648437 67.79695313 -32.6875 67.0625 C-32.93886719 66.35222656 -33.19023438 65.64195313 -33.44921875 64.91015625 C-34 63 -34 63 -34 61 C-32.515 60.505 -32.515 60.505 -31 60 C-32.65 59.67 -34.3 59.34 -36 59 C-35.68817931 60.41681634 -35.37551263 61.83344651 -35.0625 63.25 C-34.88847656 64.03890625 -34.71445312 64.8278125 -34.53515625 65.640625 C-34.052444 67.76878703 -33.53836822 69.88532842 -33 72 C-38.625 76 -38.625 76 -42 76 C-42.474375 74.865625 -42.94875 73.73125 -43.4375 72.5625 C-44.63622083 69.24259834 -44.63622083 69.24259834 -46 68 C-46.04080783 66.00041636 -46.04254356 63.99954746 -46 62 C-46.66 62 -47.32 62 -48 62 C-48.02898816 58.06251542 -48.04679464 54.12505821 -48.0625 50.1875 C-48.07087891 49.06794922 -48.07925781 47.94839844 -48.08789062 46.79492188 C-48.09111328 45.72177734 -48.09433594 44.64863281 -48.09765625 43.54296875 C-48.10289307 42.55321045 -48.10812988 41.56345215 -48.11352539 40.54370117 C-48 38 -48 38 -47 35 C-46.01 35 -45.02 35 -44 35 C-43.896875 34.319375 -43.79375 33.63875 -43.6875 32.9375 C-42.85274981 29.37084011 -41.50527246 26.33777806 -40 23 C-39.01 23 -38.02 23 -37 23 C-37.103125 22.13375 -37.20625 21.2675 -37.3125 20.375 C-36.87635041 15.66458438 -35.39965631 14.24512648 -32 11 C-30.68 11 -29.36 11 -28 11 C-28 10.01 -28 9.02 -28 8 C-26.68 8 -25.36 8 -24 8 C-24 6.35 -24 4.7 -24 3 C-23.15695313 2.93941406 -22.31390625 2.87882813 -21.4453125 2.81640625 C-20.34960938 2.73261719 -19.25390625 2.64882812 -18.125 2.5625 C-16.48917969 2.44068359 -16.48917969 2.44068359 -14.8203125 2.31640625 C-12.05271029 2.16998297 -12.05271029 2.16998297 -10 1 C-7.6670134 0.95977609 -5.33293334 0.95679753 -3 1 C-1.5216774 3.95664519 -1.93967217 6.74229737 -2 10 C-4.64 10.33 -7.28 10.66 -10 11 C-10 11.99 -10 12.98 -10 14 C-9.34 14 -8.68 14 -8 14 C-7.505 15.485 -7.505 15.485 -7 17 C-6.814375 16.0409375 -6.814375 16.0409375 -6.625 15.0625 C-6.41875 14.381875 -6.2125 13.70125 -6 13 C-3.47524538 11.73762269 -1.68799534 11.90143596 1.125 11.9375 C2.03507812 11.94652344 2.94515625 11.95554687 3.8828125 11.96484375 C4.93082031 11.98224609 4.93082031 11.98224609 6 12 C6 13.65 6 15.3 6 17 C6.66 17 7.32 17 8 17 C8 15.02 8 13.04 8 11 C9.65 11 11.3 11 13 11 C13 8.36 13 5.72 13 3 C12.34 3 11.68 3 11 3 C11 4.98 11 6.96 11 9 C7.7 9 4.4 9 1 9 C0.505 4.545 0.505 4.545 0 0 Z " fill="#440624" transform="translate(60,13)"/>
<path d="M0 0 C2.64 0 5.28 0 8 0 C8 0.66 8 1.32 8 2 C9.98 2.66 11.96 3.32 14 4 C14 4.66 14 5.32 14 6 C15.32 6 16.64 6 18 6 C18.268125 6.721875 18.53625 7.44375 18.8125 8.1875 C19.91599978 11.03120059 19.91599978 11.03120059 21.625 13.5 C23.14922071 16.27131037 23.26658771 17.88981006 23 21 C20.25722422 17.80009492 18.3697164 14.99500618 17 11 C16.01 11 15.02 11 14 11 C13.93941406 10.38640625 13.87882812 9.7728125 13.81640625 9.140625 C13.1788835 6.77820953 13.1788835 6.77820953 10.71484375 5.734375 C9.79832031 5.40953125 8.88179687 5.0846875 7.9375 4.75 C7.01839844 4.41484375 6.09929687 4.0796875 5.15234375 3.734375 C4.44207031 3.49203125 3.73179688 3.2496875 3 3 C2.67 5.97 2.34 8.94 2 12 C1.26394531 12.06058594 0.52789062 12.12117188 -0.23046875 12.18359375 C-1.20628906 12.26738281 -2.18210938 12.35117187 -3.1875 12.4375 C-4.15042969 12.51871094 -5.11335938 12.59992187 -6.10546875 12.68359375 C-8.78649602 12.97666151 -11.3662986 13.42703754 -14 14 C-12.37146123 17.76287617 -12.37146123 17.76287617 -10 21 C-7.3102216 21.80639232 -4.83171222 21.82020875 -2 22 C-1.52046875 22.50660156 -1.0409375 23.01320313 -0.546875 23.53515625 C0.91897687 25.24768419 0.91897687 25.24768419 3.26171875 25.07421875 C4.06222656 24.94660156 4.86273438 24.81898437 5.6875 24.6875 C6.49574219 24.56761719 7.30398437 24.44773437 8.13671875 24.32421875 C8.75160156 24.21722656 9.36648437 24.11023438 10 24 C10.495 22.515 10.495 22.515 11 21 C11.495 22.485 11.495 22.485 12 24 C13.2375 23.814375 14.475 23.62875 15.75 23.4375 C18.76279577 23.05288777 21.10010827 22.9125406 24 24 C24 24.66 24 25.32 24 26 C27.96 26 31.92 26 36 26 C36 26.66 36 27.32 36 28 C39.3 28 42.6 28 46 28 C47.29758261 30.59516521 47.13269102 32.54183027 47.125 35.4375 C47.12886719 36.88962891 47.12886719 36.88962891 47.1328125 38.37109375 C47 41 47 41 46 44 C45.34 44 44.68 44 44 44 C43.67 46.64 43.34 49.28 43 52 C42.34 52 41.68 52 41 52 C40.34 53.32 39.68 54.64 39 56 C38.34 56 37.68 56 37 56 C36.67 58.97 36.34 61.94 36 65 C35.34 65 34.68 65 34 65 C33.505 66.485 33.505 66.485 33 68 C31.03277992 69.38123963 29.03131672 70.71488126 27 72 C26.34 72.66 25.68 73.32 25 74 C19.83852281 74.57349747 19.83852281 74.57349747 17 74 C14.77541646 71.5731816 14 70.17197712 14 66.875 C15.48028426 64.09946701 17.13267324 63.20027632 20 62 C22.3125 62.8125 22.3125 62.8125 24 64 C24 64.66 24 65.32 24 66 C26.31 66.33 28.62 66.66 31 67 C31.103125 66.401875 31.20625 65.80375 31.3125 65.1875 C32.10127968 62.67774646 33.17017086 61.82982914 35 60 C35.71447643 57.89667109 35.71447643 57.89667109 36 56 C33.69 55.34 31.38 54.68 29 54 C28.34 54.99 27.68 55.98 27 57 C26.01 57 25.02 57 24 57 C20 52.65714286 20 52.65714286 20 50 C21.98 50.66 23.96 51.32 26 52 C27.65 48.7 29.3 45.4 31 42 C28.03 41.34 25.06 40.68 22 40 C21.67 40.99 21.34 41.98 21 43 C21 42.34 21 41.68 21 41 C20.01 41.33 19.02 41.66 18 42 C17.9175 42.78375 17.835 43.5675 17.75 44.375 C17 47 17 47 14.9375 48.3125 C13.9784375 48.6528125 13.9784375 48.6528125 13 49 C13.99 47.68 14.98 46.36 16 45 C15.34 43.68 14.68 42.36 14 41 C10.37114676 40.84850702 10.37114676 40.84850702 7 42 C6.34 41.34 5.68 40.68 5 40 C5.66 40 6.32 40 7 40 C8.80317221 36.03302114 9.49202991 32.3177458 10 28 C7.36 28 4.72 28 2 28 C1.690625 28.804375 1.38125 29.60875 1.0625 30.4375 C0 33 0 33 -1 34 C-3.33297433 34.04092937 -5.66705225 34.04241723 -8 34 C-8 33.01 -8 32.02 -8 31 C-9.65 30.67 -11.3 30.34 -13 30 C-12.93489583 28.01432292 -12.86979167 26.02864583 -12.8046875 24.04296875 C-12.86745538 21.68640281 -12.86745538 21.68640281 -15 19 C-16.98 19.33 -18.96 19.66 -21 20 C-21.433125 18.824375 -21.433125 18.824375 -21.875 17.625 C-22.84912254 14.90328368 -22.84912254 14.90328368 -25 13 C-26.32 12.67 -27.64 12.34 -29 12 C-29.99 15.63 -30.98 19.26 -32 23 C-33.32 23 -34.64 23 -36 23 C-36 23.66 -36 24.32 -36 25 C-37.65 24.67 -39.3 24.34 -41 24 C-41 23.34 -41 22.68 -41 22 C-39.02 22 -37.04 22 -35 22 C-34.855625 21.071875 -34.71125 20.14375 -34.5625 19.1875 C-34 16 -34 16 -33 13 C-33.763125 12.896875 -34.52625 12.79375 -35.3125 12.6875 C-38.17059424 11.95635961 -39.15742885 11.23048087 -41 9 C-40.34 8.01 -39.68 7.02 -39 6 C-38.4225 6.639375 -37.845 7.27875 -37.25 7.9375 C-34.5207425 10.49850499 -34.5207425 10.49850499 -31 11 C-28.72855926 9.14567913 -28.72855926 9.14567913 -27 7 C-27.33 8.32 -27.66 9.64 -28 11 C-27.01 11 -26.02 11 -25 11 C-24.67 10.01 -24.34 9.02 -24 8 C-22.68 9.65 -21.36 11.3 -20 13 C-19.4225 12.855625 -18.845 12.71125 -18.25 12.5625 C-16.80309097 12.20077274 -15.34374529 11.88419035 -13.875 11.625 C-11.61263271 11.08405139 -11.61263271 11.08405139 -10 8 C-10 8.66 -10 9.32 -10 10 C-7.03 10 -4.06 10 -1 10 C-0.67 6.7 -0.34 3.4 0 0 Z " fill="#260219" transform="translate(70,36)"/>
<path d="M0 0 C0.886875 0.45375 1.77375 0.9075 2.6875 1.375 C5.42931841 2.72004299 8.15024331 3.91038715 11 5 C11 5.66 11 6.32 11 7 C11.92232422 7.185625 11.92232422 7.185625 12.86328125 7.375 C19.3590278 9.03260678 19.3590278 9.03260678 21.265625 11.91015625 C22.27987051 14.64961349 23 17.06969651 23 20 C23.66 20 24.32 20 25 20 C25.268125 21.010625 25.53625 22.02125 25.8125 23.0625 C26.56719826 25.73089744 27.45287655 28.05067359 28.5625 30.625 C30.96052075 36.25513568 31.10231575 40.96337069 31 47 C27.7 47 24.4 47 21 47 C21 46.34 21 45.68 21 45 C17.04 45 13.08 45 9 45 C9 44.34 9 43.68 9 43 C5.04 43 1.08 43 -3 43 C-3.33 42.34 -3.66 41.68 -4 41 C-4.33 41.66 -4.66 42.32 -5 43 C-6.9609375 43.73828125 -6.9609375 43.73828125 -9.375 44.3125 C-10.16648437 44.51488281 -10.95796875 44.71726563 -11.7734375 44.92578125 C-14 45 -14 45 -15.54296875 43.5625 C-16.02378906 43.046875 -16.50460938 42.53125 -17 42 C-18.299375 41.896875 -19.59875 41.79375 -20.9375 41.6875 C-24.68039213 41.37042258 -24.84506915 41.18204375 -27.5 38.0625 C-29 35 -29 35 -29 33 C-25.22777911 31.24836544 -22.333361 30.77509973 -18.1875 30.875 C-16.72376953 30.90207031 -16.72376953 30.90207031 -15.23046875 30.9296875 C-14.49441406 30.95289062 -13.75835937 30.97609375 -13 31 C-12.67 28.03 -12.34 25.06 -12 22 C-7.87248551 22.60698743 -4.6678852 24.03810791 -1 26 C-1 27.32 -1 28.64 -1 30 C-0.01 30 0.98 30 2 30 C3.38671875 31.75 3.38671875 31.75 4.6875 34 C5.12449219 34.7425 5.56148437 35.485 6.01171875 36.25 C6.50091797 37.11625 6.50091797 37.11625 7 38 C6.53038362 33.77345256 6.03265502 31.90080046 3 29 C3 27.68 3 26.36 3 25 C1.68 24.67 0.36 24.34 -1 24 C-0.175 23.5875 0.65 23.175 1.5 22.75 C2.325 22.1725 3.15 21.595 4 21 C4 19.68 4 18.36 4 17 C1.62068472 15.21551354 -0.34192707 14.14623843 -3.25 13.5 C-3.8275 13.335 -4.405 13.17 -5 13 C-5.33 12.01 -5.66 11.02 -6 10 C-6.99 9.67 -7.98 9.34 -9 9 C-9 8.34 -9 7.68 -9 7 C-6.69 7.33 -4.38 7.66 -2 8 C-1.34 5.36 -0.68 2.72 0 0 Z " fill="#23011B" transform="translate(85,17)"/>
<path d="M0 0 C4.24846075 0.47205119 6.26819288 2.88877522 9 6 C9 6.66 9 7.32 9 8 C9.66 8 10.32 8 11 8 C13.43160605 11.36683915 14 12.73350364 14 17 C12 19.75 12 19.75 10 22 C4.25 20.25 4.25 20.25 2 18 C2 18.66 2 19.32 2 20 C3.98 20.99 5.96 21.98 8 23 C7.34 25.97 6.68 28.94 6 32 C4.02 32 2.04 32 0 32 C0 32.66 0 33.32 0 34 C1.65 34.33 3.3 34.66 5 35 C5.03738281 35.68964844 5.07476562 36.37929688 5.11328125 37.08984375 C5.56078148 43.48646465 6.65649801 49.03070248 9 55 C6.1875 57.0625 6.1875 57.0625 3 59 C-0 58 -0 58 -0.94921875 56.22265625 C-1.19285156 55.50980469 -1.43648437 54.79695313 -1.6875 54.0625 C-1.93886719 53.35222656 -2.19023437 52.64195313 -2.44921875 51.91015625 C-3 50 -3 50 -3 48 C-1.515 47.505 -1.515 47.505 0 47 C-1.65 46.67 -3.3 46.34 -5 46 C-4.68817931 47.41681634 -4.37551263 48.83344651 -4.0625 50.25 C-3.88847656 51.03890625 -3.71445312 51.8278125 -3.53515625 52.640625 C-3.052444 54.76878703 -2.53836822 56.88532842 -2 59 C-7.625 63 -7.625 63 -11 63 C-11.474375 61.865625 -11.94875 60.73125 -12.4375 59.5625 C-13.63622083 56.24259834 -13.63622083 56.24259834 -15 55 C-15.04080783 53.00041636 -15.04254356 50.99954746 -15 49 C-15.66 49 -16.32 49 -17 49 C-17.02898816 45.06251542 -17.04679464 41.12505821 -17.0625 37.1875 C-17.07087891 36.06794922 -17.07925781 34.94839844 -17.08789062 33.79492188 C-17.09111328 32.72177734 -17.09433594 31.64863281 -17.09765625 30.54296875 C-17.10289307 29.55321045 -17.10812988 28.56345215 -17.11352539 27.54370117 C-17 25 -17 25 -16 22 C-15.01 22 -14.02 22 -13 22 C-12.896875 21.319375 -12.79375 20.63875 -12.6875 19.9375 C-11.85274981 16.37084011 -10.50527246 13.33777806 -9 10 C-8.01 10 -7.02 10 -6 10 C-5.9071875 9.195625 -5.9071875 9.195625 -5.8125 8.375 C-4.61972618 4.88843038 -2.43802834 2.75059607 0 0 Z " fill="#33010D" transform="translate(29,26)"/>
<path d="M0 0 C0.20625 0.598125 0.4125 1.19625 0.625 1.8125 C2.69581817 5.10698345 4.27846523 5.73846279 8 7 C14.45224524 7.45911783 20.64188831 7.18735821 27 6 C27 6.66 27 7.32 27 8 C28.32 8 29.64 8 31 8 C31.33 7.34 31.66 6.68 32 6 C35 11.75 35 11.75 35 14 C36.98 13.34 38.96 12.68 41 12 C41 11.34 41 10.68 41 10 C43 8.375 43 8.375 45 7 C45 7.66 45 8.32 45 9 C45.99 9 46.98 9 48 9 C48.66 7.68 49.32 6.36 50 5 C54.75 6.875 54.75 6.875 57 8 C56.48847632 11.78527521 55.79154158 13.44108688 53 16 C52.505 17.485 52.505 17.485 52 19 C50.68 19 49.36 19 48 19 C47.505 20.485 47.505 20.485 47 22 C47 20.68 47 19.36 47 18 C46.34 18 45.68 18 45 18 C44.34 17.01 43.68 16.02 43 15 C39.45481116 16.39759905 39.45481116 16.39759905 36 18 C36.65585189 21.60992379 36.65585189 21.60992379 38 25 C38.99 25.66 39.98 26.32 41 27 C35.60486277 29.74220923 30.91456919 31.44971795 24.84765625 31.82421875 C22.90567323 31.89695824 22.90567323 31.89695824 21 33 C17.42269607 33.26793243 13.83621121 33.23160917 10.25 33.25 C9.26 33.270625 8.27 33.29125 7.25 33.3125 C1.75088705 33.34190702 -2.29165239 33.18151923 -7 30 C-9.375 27.3125 -9.375 27.3125 -11 25 C-10.34 24.67 -9.68 24.34 -9 24 C-7.42451317 21.37418862 -7 20.12900213 -7 17 C-8.9375006 14.81222534 -8.9375006 14.81222534 -11 13 C-7.25 10 -7.25 10 -5 10 C-5 11.32 -5 12.64 -5 14 C-2.05286786 17.06048338 0.87240487 17.5309551 5 18 C5.33 15.36 5.66 12.72 6 10 C5.44570313 9.75765625 4.89140625 9.5153125 4.3203125 9.265625 C3.59585938 8.93046875 2.87140625 8.5953125 2.125 8.25 C1.40570313 7.92515625 0.68640625 7.6003125 -0.0546875 7.265625 C-2.3370674 5.78070314 -3.00375898 4.49584592 -4 2 C-2.68 2 -1.36 2 0 2 C0 1.34 0 0.68 0 0 Z " fill="#230214" transform="translate(49,84)"/>
<path d="M0 0 C2.25998595 3.59462331 2.20868087 6.56595675 2.125 10.75 C2.10695313 11.92046875 2.08890625 13.0909375 2.0703125 14.296875 C2.04710938 15.18890625 2.02390625 16.0809375 2 17 C2.99 17 3.98 17 5 17 C5.103125 17.9075 5.20625 18.815 5.3125 19.75 C6.01250371 23.05910846 6.57990958 24.66954256 9 27 C10.32 27 11.64 27 13 27 C13 27.66 13 28.32 13 29 C12.01 29.33 11.02 29.66 10 30 C12.9905167 33.33557632 15.93184627 35.15083921 20 37 C19.34 39.64 18.68 42.28 18 45 C14.06225823 45.36630156 12.43460229 45.30233203 9.125 43 C8.42375 42.34 7.7225 41.68 7 41 C7.33 39.68 7.66 38.36 8 37 C6.35 37.99 4.7 38.98 3 40 C3.33 40.99 3.66 41.98 4 43 C5.485 43.495 5.485 43.495 7 44 C6.37240135 46.92879371 5.41377341 49.36095629 4 52 C-0.08378283 51.25749403 -4.01939223 50.17076699 -8 49 C-7.67 47.35 -7.34 45.7 -7 44 C-8.65 44 -10.3 44 -12 44 C-12.2475 43.21625 -12.495 42.4325 -12.75 41.625 C-14.15389099 38.67682892 -15.00675737 38.0975223 -18 37 C-18.33 37.66 -18.66 38.32 -19 39 C-20.10228696 34.59085217 -20.07654536 30.51617599 -20 26 C-18 28 -18 28 -18 32 C-15.36 30.68 -12.72 29.36 -10 28 C-10.22816406 27.22914062 -10.45632812 26.45828125 -10.69140625 25.6640625 C-10.97886719 24.66117188 -11.26632813 23.65828125 -11.5625 22.625 C-11.85253906 21.62726563 -12.14257812 20.62953125 -12.44140625 19.6015625 C-13 17 -13 17 -12 15 C-10.02 15 -8.04 15 -6 15 C-6.33 15.66 -6.66 16.32 -7 17 C-7.99 17 -8.98 17 -10 17 C-8.68 20.3 -7.36 23.6 -6 27 C-2.45678112 25.59624169 -2.45678112 25.59624169 1 24 C0.505 22.783125 0.01 21.56625 -0.5 20.3125 C-2.55731273 14.2661255 -2.26343324 8.31264087 -2 2 C-1.34 2 -0.68 2 0 2 C0 1.34 0 0.68 0 0 Z " fill="#380210" transform="translate(36,57)"/>
<path d="M0 0 C2.7019433 0.36512747 4.58390852 0.69869237 6.8125 2.3125 C8 4 8 4 8 8 C8.99 7.34 9.98 6.68 11 6 C13.0625 6.1875 13.0625 6.1875 15 7 C17.80163026 11.2024454 17.14489712 14.00104935 17 19 C14.03 19.33 11.06 19.66 8 20 C8.65061095 21.67299959 9.32033324 23.33859237 10 25 C10.268125 25.7425 10.53625 26.485 10.8125 27.25 C11.91657136 29.27967412 11.91657136 29.27967412 14.625 29.75 C15.40875 29.8325 16.1925 29.915 17 30 C17 30.99 17 31.98 17 33 C18.32 33.66 19.64 34.32 21 35 C21 37.97 21 40.94 21 44 C11.88 43.24 11.88 43.24 9 40 C9 38.68 9 37.36 9 36 C6.525 36.495 6.525 36.495 4 37 C3.13050683 35.92892883 2.27985795 34.84254056 1.4375 33.75 C0.96183594 33.14671875 0.48617187 32.5434375 -0.00390625 31.921875 C-1 30 -1 30 -0.65234375 27.765625 C-0.32943359 26.89164063 -0.32943359 26.89164063 0 26 C-0.99 26 -1.98 26 -3 26 C-5.53135792 18.40592624 -4.33966839 8.93550484 -0.9296875 1.7421875 C-0.62289062 1.16726562 -0.31609375 0.59234375 0 0 Z " fill="#340113" transform="translate(41,48)"/>
<path d="M0 0 C4.12751449 0.60698743 7.3321148 2.03810791 11 4 C11 5.32 11 6.64 11 8 C11.99 8 12.98 8 14 8 C18.57142857 15.28571429 18.57142857 15.28571429 18 20 C15.03 20.33 12.06 20.66 9 21 C8.67 20.34 8.34 19.68 8 19 C7.67 19.66 7.34 20.32 7 21 C5.0390625 21.73828125 5.0390625 21.73828125 2.625 22.3125 C1.83351563 22.51488281 1.04203125 22.71726562 0.2265625 22.92578125 C-2 23 -2 23 -3.54296875 21.5625 C-4.02378906 21.046875 -4.50460938 20.53125 -5 20 C-6.299375 19.896875 -7.59875 19.79375 -8.9375 19.6875 C-12.68039213 19.37042258 -12.84506915 19.18204375 -15.5 16.0625 C-17 13 -17 13 -17 11 C-13.22777911 9.24836544 -10.333361 8.77509973 -6.1875 8.875 C-4.72376953 8.90207031 -4.72376953 8.90207031 -3.23046875 8.9296875 C-2.49441406 8.95289063 -1.75835937 8.97609375 -1 9 C-0.67 6.03 -0.34 3.06 0 0 Z " fill="#33031A" transform="translate(73,39)"/>
<path d="M0 0 C2.64 0 5.28 0 8 0 C8 0.66 8 1.32 8 2 C9.98 2.66 11.96 3.32 14 4 C14 4.66 14 5.32 14 6 C15.32 6 16.64 6 18 6 C18.268125 6.721875 18.53625 7.44375 18.8125 8.1875 C19.91599978 11.03120059 19.91599978 11.03120059 21.625 13.5 C23.14922071 16.27131037 23.26658771 17.88981006 23 21 C20.25722422 17.80009492 18.3697164 14.99500618 17 11 C16.01 11 15.02 11 14 11 C13.93941406 10.38640625 13.87882812 9.7728125 13.81640625 9.140625 C13.1788835 6.77820953 13.1788835 6.77820953 10.71484375 5.734375 C9.79832031 5.40953125 8.88179687 5.0846875 7.9375 4.75 C7.01839844 4.41484375 6.09929687 4.0796875 5.15234375 3.734375 C4.44207031 3.49203125 3.73179688 3.2496875 3 3 C2.67 5.97 2.34 8.94 2 12 C1.26394531 12.06058594 0.52789062 12.12117188 -0.23046875 12.18359375 C-1.20628906 12.26738281 -2.18210938 12.35117187 -3.1875 12.4375 C-4.15042969 12.51871094 -5.11335938 12.59992187 -6.10546875 12.68359375 C-8.78649602 12.97666151 -11.3662986 13.42703754 -14 14 C-12.37253421 17.76335399 -12.37253421 17.76335399 -10 21 C-7.92725746 21.55641244 -6.04980212 21.62295206 -3.91015625 21.7109375 C-2 22 -2 22 0.5625 24.25 C2 27 2 27 1.875 29.6875 C1 32 1 32 -1 34 C-4.625 34.125 -4.625 34.125 -8 34 C-8 33.01 -8 32.02 -8 31 C-9.65 30.67 -11.3 30.34 -13 30 C-12.93489583 28.01432292 -12.86979167 26.02864583 -12.8046875 24.04296875 C-12.86745538 21.68640281 -12.86745538 21.68640281 -15 19 C-16.98 19.33 -18.96 19.66 -21 20 C-21.433125 18.824375 -21.433125 18.824375 -21.875 17.625 C-22.84912254 14.90328368 -22.84912254 14.90328368 -25 13 C-26.32 12.67 -27.64 12.34 -29 12 C-29.99 15.63 -30.98 19.26 -32 23 C-33.32 23 -34.64 23 -36 23 C-36 23.66 -36 24.32 -36 25 C-37.65 24.67 -39.3 24.34 -41 24 C-41 23.34 -41 22.68 -41 22 C-39.02 22 -37.04 22 -35 22 C-34.855625 21.071875 -34.71125 20.14375 -34.5625 19.1875 C-34 16 -34 16 -33 13 C-33.763125 12.896875 -34.52625 12.79375 -35.3125 12.6875 C-38.17059424 11.95635961 -39.15742885 11.23048087 -41 9 C-40.34 8.01 -39.68 7.02 -39 6 C-38.4225 6.639375 -37.845 7.27875 -37.25 7.9375 C-34.5207425 10.49850499 -34.5207425 10.49850499 -31 11 C-28.72855926 9.14567913 -28.72855926 9.14567913 -27 7 C-27.33 8.32 -27.66 9.64 -28 11 C-27.01 11 -26.02 11 -25 11 C-24.67 10.01 -24.34 9.02 -24 8 C-22.68 9.65 -21.36 11.3 -20 13 C-19.4225 12.855625 -18.845 12.71125 -18.25 12.5625 C-16.80309097 12.20077274 -15.34374529 11.88419035 -13.875 11.625 C-11.61263271 11.08405139 -11.61263271 11.08405139 -10 8 C-10 8.66 -10 9.32 -10 10 C-7.03 10 -4.06 10 -1 10 C-0.67 6.7 -0.34 3.4 0 0 Z " fill="#2A0212" transform="translate(70,36)"/>
<path d="M0 0 C1.4783226 2.95664519 1.06032783 5.74229737 1 9 C-1.64 9.33 -4.28 9.66 -7 10 C-7 10.99 -7 11.98 -7 13 C-6.34 13.33 -5.68 13.66 -5 14 C-7.97 14.99 -10.94 15.98 -14 17 C-14.36980013 21.04622502 -14.36980013 21.04622502 -12 24 C-11.43796875 23.84660156 -10.8759375 23.69320312 -10.296875 23.53515625 C-7.94161122 22.98639581 -5.65451896 22.68502401 -3.25 22.4375 C-2.05117187 22.31181641 -2.05117187 22.31181641 -0.828125 22.18359375 C0.07679687 22.09271484 0.07679687 22.09271484 1 22 C1 22.66 1 23.32 1 24 C0.31292969 24.23074219 -0.37414063 24.46148437 -1.08203125 24.69921875 C-7.94246708 27.14208913 -7.94246708 27.14208913 -12 33 C-12.99 33 -13.98 33 -15 33 C-14.773125 31.906875 -14.54625 30.81375 -14.3125 29.6875 C-13.57662825 26.10050364 -13.57662825 26.10050364 -15.4375 24.25 C-15.953125 23.8375 -16.46875 23.425 -17 23 C-17 22.01 -17 21.02 -17 20 C-17.66 20 -18.32 20 -19 20 C-20.5078125 18.46875 -20.5078125 18.46875 -22.125 16.5 C-22.66382813 15.8503125 -23.20265625 15.200625 -23.7578125 14.53125 C-24.16773438 14.0259375 -24.57765625 13.520625 -25 13 C-29.24925258 13.78992516 -31.08910865 15.84653437 -34 19 C-33.42558597 15.12270528 -31.70745361 12.78480942 -29 10 C-27.68 10 -26.36 10 -25 10 C-25 9.01 -25 8.02 -25 7 C-23.68 7 -22.36 7 -21 7 C-21 5.35 -21 3.7 -21 2 C-19.73542969 1.90912109 -19.73542969 1.90912109 -18.4453125 1.81640625 C-17.34960938 1.73261719 -16.25390625 1.64882812 -15.125 1.5625 C-14.03445312 1.48128906 -12.94390625 1.40007813 -11.8203125 1.31640625 C-0.07417582 -0.00137363 -0.07417582 -0.00137363 0 0 Z " fill="#300110" transform="translate(57,14)"/>
<path d="M0 0 C0.20625 0.598125 0.4125 1.19625 0.625 1.8125 C2.99507575 5.58307506 6.67574942 6.68333138 10.875 7.6875 C11.57625 7.790625 12.2775 7.89375 13 8 C13 8.66 13 9.32 13 10 C14.65 10 16.3 10 18 10 C18 10.33 18 10.66 18 11 C15.03 11 12.06 11 9 11 C9 13.64 9 16.28 9 19 C11.64 19.66 14.28 20.32 17 21 C17 21.33 17 21.66 17 22 C14.03 22 11.06 22 8 22 C7.67 25.3 7.34 28.6 7 32 C11.62 32 16.24 32 21 32 C21 32.33 21 32.66 21 33 C17.45849107 33.08761663 13.91726367 33.14059739 10.375 33.1875 C8.87646484 33.22520508 8.87646484 33.22520508 7.34765625 33.26367188 C1.80967573 33.31868493 -2.26039409 33.22050145 -7 30 C-9.375 27.3125 -9.375 27.3125 -11 25 C-10.34 24.67 -9.68 24.34 -9 24 C-7.42451317 21.37418862 -7 20.12900213 -7 17 C-8.9375006 14.81222534 -8.9375006 14.81222534 -11 13 C-7.25 10 -7.25 10 -5 10 C-5 11.32 -5 12.64 -5 14 C-2.05286786 17.06048338 0.87240487 17.5309551 5 18 C5.33 15.36 5.66 12.72 6 10 C5.44570313 9.75765625 4.89140625 9.5153125 4.3203125 9.265625 C3.59585938 8.93046875 2.87140625 8.5953125 2.125 8.25 C1.40570313 7.92515625 0.68640625 7.6003125 -0.0546875 7.265625 C-2.3370674 5.78070314 -3.00375898 4.49584592 -4 2 C-2.68 2 -1.36 2 0 2 C0 1.34 0 0.68 0 0 Z " fill="#270111" transform="translate(49,84)"/>
<path d="M0 0 C0.886875 0.45375 1.77375 0.9075 2.6875 1.375 C5.42931841 2.72004299 8.15024331 3.91038715 11 5 C11 5.66 11 6.32 11 7 C11.62648438 7.17015625 12.25296875 7.3403125 12.8984375 7.515625 C13.71570313 7.75796875 14.53296875 8.0003125 15.375 8.25 C16.18710938 8.48203125 16.99921875 8.7140625 17.8359375 8.953125 C20 10 20 10 21.3515625 11.921875 C22 14 22 14 21 17 C19.68 15.35 18.36 13.7 17 12 C14.13275314 12.57344937 13.1385485 12.8614515 11 15 C10.35232207 17.57061311 10.35232207 17.57061311 10 20 C9.01 20.33 8.02 20.66 7 21 C7 19.68 7 18.36 7 17 C6.42636719 16.86335938 5.85273437 16.72671875 5.26171875 16.5859375 C3.070004 16.01813575 0.94988158 15.370878 -1.1875 14.625 C-1.88230469 14.39039063 -2.57710938 14.15578125 -3.29296875 13.9140625 C-5 13 -5 13 -6 10 C-6.99 9.67 -7.98 9.34 -9 9 C-9 8.34 -9 7.68 -9 7 C-6.69 7.33 -4.38 7.66 -2 8 C-1.34 5.36 -0.68 2.72 0 0 Z " fill="#2D0218" transform="translate(85,17)"/>
<path d="M0 0 C0.66 0 1.32 0 2 0 C2 0.66 2 1.32 2 2 C5.3 2 8.6 2 12 2 C13.29758261 4.59516521 13.13269102 6.54183027 13.125 9.4375 C13.12886719 10.88962891 13.12886719 10.88962891 13.1328125 12.37109375 C13 15 13 15 12 18 C11.34 18 10.68 18 10 18 C9.67 20.64 9.34 23.28 9 26 C8.34 26 7.68 26 7 26 C7 23.36 7 20.72 7 18 C6.21753906 17.87882812 5.43507813 17.75765625 4.62890625 17.6328125 C3.61699219 17.46523437 2.60507813 17.29765625 1.5625 17.125 C0.04849609 16.88136719 0.04849609 16.88136719 -1.49609375 16.6328125 C-2.32238281 16.42398438 -3.14867188 16.21515625 -4 16 C-4.33 15.34 -4.66 14.68 -5 14 C-3.35 14 -1.7 14 0 14 C0 9.38 0 4.76 0 0 Z " fill="#1A0112" transform="translate(104,62)"/>
<path d="M0 0 C3 1 3 1 4.09765625 2.56640625 C7.75835595 10.13975664 9.30063758 16.58214773 9 25 C6.03 25 3.06 25 0 25 C-0.33 21.7 -0.66 18.4 -1 15 C0.98 14.67 2.96 14.34 5 14 C5 13.34 5 12.68 5 12 C2.69 12 0.38 12 -2 12 C-3.625 9.25 -3.625 9.25 -5 6 C-4.05665124 2.60394445 -3.00883067 2.00588712 0 0 Z " fill="#6B0A51" transform="translate(107,39)"/>
<path d="M0 0 C3.12290635 0.48578543 5.99580359 0.9986012 9 2 C8.46884894 6.51478398 6.63379708 9.34666857 4 13 C2.02 12.01 0.04 11.02 -2 10 C-1.484375 10.5775 -0.96875 11.155 -0.4375 11.75 C1 14 1 14 0.6875 16.25 C0.460625 16.8275 0.23375 17.405 0 18 C-0.66 18 -1.32 18 -2 18 C-2 18.66 -2 19.32 -2 20 C-5 22 -5 22 -8 22 C-9.88852948 19.57189067 -11.05925343 18.0073083 -10.875 14.875 C-9.8465707 12.67122293 -8.95943608 11.45143413 -7 10 C-5.68 10 -4.36 10 -3 10 C-2.87625 9.278125 -2.7525 8.55625 -2.625 7.8125 C-2.0095069 5.04278106 -1.11555626 2.6029646 0 0 Z " fill="#790955" transform="translate(92,76)"/>
<path d="M0 0 C2.375 2.1875 2.375 2.1875 4 5 C3.84077523 8.42333251 3.4368763 9.5631237 1 12 C-2.625 12.125 -2.625 12.125 -6 12 C-6 11.01 -6 10.02 -6 9 C-7.65 8.67 -9.3 8.34 -11 8 C-10.67 6.35 -10.34 4.7 -10 3 C-9.34 3 -8.68 3 -8 3 C-8 2.34 -8 1.68 -8 1 C-4.93309225 -0.02230258 -3.18373032 -0.46591175 0 0 Z " fill="#0E0407" transform="translate(68,58)"/>
<path d="M0 0 C3.3 0 6.6 0 10 0 C10.33 2.97 10.66 5.94 11 9 C14.3 9 17.6 9 21 9 C21 7.02 21 5.04 21 3 C21.66 3 22.32 3 23 3 C23 5.64 23 8.28 23 11 C21.35 11 19.7 11 18 11 C18 12.98 18 14.96 18 17 C17.34 17 16.68 17 16 17 C16 15.35 16 13.7 16 12 C10.06 12.495 10.06 12.495 4 13 C4 14.65 4 16.3 4 18 C3.34 17.67 2.68 17.34 2 17 C2 16.01 2 15.02 2 14 C1.34 14 0.68 14 0 14 C0 13.01 0 12.02 0 11 C2.64 10.67 5.28 10.34 8 10 C7.67 7.03 7.34 4.06 7 1 C4.69 1 2.38 1 0 1 C0 0.67 0 0.34 0 0 Z " fill="#210012" transform="translate(50,13)"/>
<path d="M0 0 C4.29 0 8.58 0 13 0 C13 2.97 13 5.94 13 9 C8.38 9 3.76 9 -1 9 C-0.67 6.03 -0.34 3.06 0 0 Z " fill="#97124E" transform="translate(57,107)"/>
<path d="M0 0 C2.97 0 5.94 0 9 0 C9.1799928 5.21979128 8.97094808 9.07262981 7 14 C4.33333333 13.33333333 1.66666667 12.66666667 -1 12 C-0.67 8.04 -0.34 4.08 0 0 Z " fill="#850D53" transform="translate(83,62)"/>
<path d="M0 0 C0.7425 0.639375 1.485 1.27875 2.25 1.9375 C5.33010071 4.38921938 5.33010071 4.38921938 9 5 C11.27144074 3.14567913 11.27144074 3.14567913 13 1 C12.67 2.32 12.34 3.64 12 5 C12.99 5 13.98 5 15 5 C15.33 4.01 15.66 3.02 16 2 C17.32 3.65 18.64 5.3 20 7 C21.65 6.67 23.3 6.34 25 6 C24.67 6.99 24.34 7.98 24 9 C22.68 9 21.36 9 20 9 C19.67 9.99 19.34 10.98 19 12 C18.4225 11.195625 17.845 10.39125 17.25 9.5625 C15.09797845 6.62146796 15.09797845 6.62146796 11 6 C10.01 9.63 9.02 13.26 8 17 C6.68 17 5.36 17 4 17 C4 17.66 4 18.32 4 19 C2.35 18.67 0.7 18.34 -1 18 C-1 17.34 -1 16.68 -1 16 C0.98 16 2.96 16 5 16 C5.144375 15.071875 5.28875 14.14375 5.4375 13.1875 C6 10 6 10 7 7 C6.236875 6.896875 5.47375 6.79375 4.6875 6.6875 C1.82940576 5.95635961 0.84257115 5.23048087 -1 3 C-0.67 2.01 -0.34 1.02 0 0 Z " fill="#330211" transform="translate(30,42)"/>
<path d="M0 0 C4.455 0.99 4.455 0.99 9 2 C9.80967438 4.91482778 10.21845993 6.46113217 9.0625 9.3125 C8.711875 9.869375 8.36125 10.42625 8 11 C0.375 10.125 0.375 10.125 -3 9 C-2.41321669 5.47930015 -1.64350079 3.28700157 0 0 Z " fill="#941348" transform="translate(45,103)"/>
<path d="M0 0 C2.1875 2.5 2.1875 2.5 4 5 C2.62845496 7.95409701 1.01136276 10.44008376 -1 13 C-3.875 12.25 -3.875 12.25 -7 11 C-8.1953125 8.921875 -8.1953125 8.921875 -9 7 C-8.07347299 5.82460004 -7.13336613 4.65989423 -6.1875 3.5 C-5.66542969 2.8503125 -5.14335938 2.200625 -4.60546875 1.53125 C-3 0 -3 0 0 0 Z " fill="#B1114B" transform="translate(40,35)"/>
<path d="M0 0 C2.97 0 5.94 0 9 0 C9.125 8.75 9.125 8.75 8 11 C1.25 11.125 1.25 11.125 -1 10 C-0.67 6.7 -0.34 3.4 0 0 Z " fill="#610C46" transform="translate(107,66)"/>
<path d="M0 0 C1.98 0.66 3.96 1.32 6 2 C7.06351675 5.38391693 7.21442982 6.5804634 5.5625 9.8125 C5.046875 10.534375 4.53125 11.25625 4 12 C1.36 11.67 -1.28 11.34 -4 11 C-5 8 -5 8 -3.6875 4.9375 C-2 2 -2 2 0 0 Z " fill="#B91348" transform="translate(21,37)"/>
<path d="M0 0 C1.4783226 2.95664519 1.06032783 5.74229737 1 9 C-1.97 9.66 -4.94 10.32 -8 11 C-8.99 8.03 -9.98 5.06 -11 2 C-6.78370866 -0.10814567 -4.60209225 -0.17700355 0 0 Z " fill="#961449" transform="translate(57,14)"/>
<path d="M0 0 C4.75 1.875 4.75 1.875 7 3 C6.49701212 7.40114397 4.91227269 9.71195019 2 13 C-0.375 12.6875 -0.375 12.6875 -3 12 C-5 9 -5 9 -5 5 C-2.5 2.25 -2.5 2.25 0 0 Z " fill="#660D49" transform="translate(99,89)"/>
<path d="M0 0 C0.99 2.97 1.98 5.94 3 9 C-2.625 13 -2.625 13 -6 13 C-6.99 9.37 -7.98 5.74 -9 2 C-3.375 0 -3.375 0 0 0 Z " fill="#B9184B" transform="translate(24,76)"/>
<path d="M0 0 C0.99 2.97 1.98 5.94 3 9 C0.1875 11.0625 0.1875 11.0625 -3 13 C-6 12 -6 12 -6.94921875 10.22265625 C-7.19285156 9.50980469 -7.43648437 8.79695313 -7.6875 8.0625 C-7.93886719 7.35222656 -8.19023437 6.64195313 -8.44921875 5.91015625 C-9 4 -9 4 -9 2 C-2.25 0 -2.25 0 0 0 Z " fill="#B8124B" transform="translate(35,72)"/>
<path d="M0 0 C2 0 2 0 3.4375 1.375 C3.953125 1.91125 4.46875 2.4475 5 3 C5.99 3.66 6.98 4.32 8 5 C7.37240135 7.92879371 6.41377341 10.36095629 5 13 C2.29068581 12.84518205 0.53415961 12.51827919 -1.4453125 10.59765625 C-2.67679642 9.10228292 -3.8429837 7.5537076 -5 6 C-4.34 5.01 -3.68 4.02 -3 3 C-2.34 3 -1.68 3 -1 3 C-0.67 2.01 -0.34 1.02 0 0 Z " fill="#BA114E" transform="translate(35,96)"/>
<path d="M0 0 C3.34373475 0.55728913 6.03312999 1.35173889 9 3 C8.34 5.64 7.68 8.28 7 11 C3.06225823 11.36630156 1.43460229 11.30233203 -1.875 9 C-2.57625 8.34 -3.2775 7.68 -4 7 C-2.79618552 4.50638429 -1.54571278 2.31856917 0 0 Z " fill="#B70C52" transform="translate(47,91)"/>
<path d="M0 0 C1.38576923 1.62332967 2.72641268 3.28724465 4 5 C2.70700306 7.88437779 1.34058637 9.87219421 -1 12 C-4.78717347 10.51218185 -6.77407001 8.38011591 -9 5 C-8 2 -8 2 -5.625 0.25 C-3 -1 -3 -1 0 0 Z " fill="#C1124B" transform="translate(30,88)"/>
<path d="M0 0 C2.24243223 2.86103423 3 4.34076304 3 8 C-1.17737474 9.59138085 -4.53160785 10.21278058 -9 10 C-9 7.03 -9 4.06 -9 1 C-3.0952381 -0.47619048 -3.0952381 -0.47619048 0 0 Z " fill="#890F4D" transform="translate(73,82)"/>
<path d="M0 0 C2.77260114 0.34518327 5.30713416 1.21820024 8 2 C8 4.97 8 7.94 8 11 C-0.57142857 10.28571429 -0.57142857 10.28571429 -4 7 C-2.92598892 4.08482708 -2.22189824 2.22189824 0 0 Z " fill="#B40853" transform="translate(54,81)"/>
<path d="M0 0 C0.86625 0.4640625 0.86625 0.4640625 1.75 0.9375 C3.84294184 1.92583364 5.74535275 2.5168613 8 3 C9.125 7.75 9.125 7.75 8 10 C7.34 10 6.68 10 6 10 C5.67 10.99 5.34 11.98 5 13 C-1.09411765 10.85882353 -1.09411765 10.85882353 -3 8 C-2.73897585 4.51967799 -1.96602468 2.94903702 0 0 Z " fill="#7C0D4C" transform="translate(88,19)"/>
<path d="M0 0 C0.66 2.64 1.32 5.28 2 8 C-3.31447225 11.01958651 -3.31447225 11.01958651 -6.1875 10.9375 C-8.53021128 9.72575279 -9.58512526 8.19305584 -11 6 C-10.03628506 3.59071265 -9.34789837 2.23992991 -7.1875 0.75 C-4.67678635 -0.11081611 -2.63651351 -0.14647297 0 0 Z " fill="#9A1247" transform="translate(52,28)"/>
<path d="M0 0 C2.22128936 1.07481743 3.51098575 1.91034817 4.9375 3.9375 C4.72002874 7.30830456 3.03535412 9.38359064 0.9375 11.9375 C-4.8125 11.1875 -4.8125 11.1875 -7.0625 8.9375 C-6.89240243 5.70564624 -6.22180663 4.14624662 -4.25 1.5625 C-2.0625 -0.0625 -2.0625 -0.0625 0 0 Z " fill="#C9104C" transform="translate(31.0625,26.0625)"/>
<path d="M0 0 C1.48873294 2.36445821 2.00636486 3.73904068 1.9375 6.5625 C1 9 1 9 -1.3125 10.9375 C-4 12 -4 12 -6.1875 11.375 C-8 10 -8 10 -10 7 C-10 5 -10 5 -9 3 C-5.79116175 1.04679411 -3.7794561 0 0 0 Z " fill="#CB0B52" transform="translate(44,18)"/>
<path d="M0 0 C3.96 0 7.92 0 12 0 C11.67 2.97 11.34 5.94 11 9 C7.7 9 4.4 9 1 9 C0.67 6.03 0.34 3.06 0 0 Z " fill="#8B154B" transform="translate(60,13)"/>
<path d="M0 0 C0.763125 0.309375 1.52625 0.61875 2.3125 0.9375 C4.18789677 1.67893593 6.08684652 2.36228217 8 3 C7.34 5.97 6.68 8.94 6 12 C3.03 12 0.06 12 -3 12 C-3.34833144 7.12335991 -2.41685712 4.22949995 0 0 Z " fill="#B7124C" transform="translate(29,46)"/>
<path d="M0 0 C2.82054707 1.45576623 3.63807117 3.14125657 4.9375 6 C5.125 8.8125 5.125 8.8125 4.9375 11 C0.4825 11.495 0.4825 11.495 -4.0625 12 C-5.56071059 8.62902617 -6.0625 6.79557881 -6.0625 3 C-4.05364697 0.91940222 -2.92973025 0 0 0 Z " fill="#7A0D4C" transform="translate(86.0625,48)"/>
<path d="M0 0 C2.58749724 0.34966179 4.63958564 0.80235341 6.9375 2.0625 C8.30334432 4.55315729 7.85787175 5.47728279 7.1875 8.1875 C6.795625 9.445625 6.40375 10.70375 6 12 C3.03 11.67 0.06 11.34 -3 11 C-2.53199289 6.94393835 -2.12046792 3.53411321 0 0 Z " fill="#A2134B" transform="translate(41,48)"/>
<path d="M0 0 C1.25664978 2.90600261 2 4.79604584 2 8 C-4.5 11 -4.5 11 -9 11 C-9.33 8.03 -9.66 5.06 -10 2 C-2.25 0 -2.25 0 0 0 Z " fill="#A00858" transform="translate(82,104)"/>
<path d="M0 0 C6.75 -0.125 6.75 -0.125 9 1 C9 3.97 9 6.94 9 10 C6.04335481 11.4783226 3.25770263 11.06032783 0 11 C0 7.37 0 3.74 0 0 Z " fill="#DA0D52" transform="translate(25,60)"/>
<path d="M0 0 C1.47906892 -0.02689216 2.95827483 -0.04634621 4.4375 -0.0625 C5.26121094 -0.07410156 6.08492188 -0.08570312 6.93359375 -0.09765625 C9 0 9 0 10 1 C10.14115161 3.67058851 10.04247107 6.32432238 10 9 C8.35425434 9.02688151 6.70838587 9.04634123 5.0625 9.0625 C4.14597656 9.07410156 3.22945312 9.08570312 2.28515625 9.09765625 C0 9 0 9 -1 8 C-0.82364548 5.30917128 -0.38164079 2.67148554 0 0 Z " fill="#BA0758" transform="translate(58,95)"/>
<path d="M0 0 C1.8125 1.8125 1.8125 1.8125 3 4 C2.84547044 6.54973766 2.18013959 7.7512358 0.6875 9.8125 C-1 11 -1 11 -2.9375 11.0625 C-6.11689041 9.42463221 -7.33121403 7.09034439 -9 4 C-8 1 -8 1 -6.1875 -0.25 C-3.55829554 -1.15144153 -2.5260369 -1.14079086 0 0 Z " fill="#A1134C" transform="translate(49,74)"/>
<path d="M0 0 C2.97 0.33 5.94 0.66 9 1 C9 3.97 9 6.94 9 10 C6.09399739 11.25664978 4.20395416 12 1 12 C-0.26237731 9.47524538 -0.09856404 7.68799534 -0.0625 4.875 C-0.05347656 3.96492188 -0.04445312 3.05484375 -0.03515625 2.1171875 C-0.02355469 1.41851562 -0.01195312 0.71984375 0 0 Z " fill="#A7164C" transform="translate(37,61)"/>
<path d="M0 0 C3.63 0 7.26 0 11 0 C11.125 6.75 11.125 6.75 10 9 C7.03 9 4.06 9 1 9 C0.67 6.03 0.34 3.06 0 0 Z " fill="#9E0F50" transform="translate(59,37)"/>
<path d="M0 0 C2.92553367 1.41844057 4.27678833 3.3214325 6.0625 6 C6.0625 9 6.0625 9 4.375 10.75 C2.0625 12 2.0625 12 -0.5 11.9375 C-3.46951961 10.79537707 -4.48720274 9.82002244 -5.9375 7 C-5.78297044 4.45026234 -5.11763959 3.2487642 -3.625 1.1875 C-1.9375 0 -1.9375 0 0 0 Z " fill="#6B0E47" transform="translate(100.9375,28)"/>
<path d="M0 0 C0.556875 0.391875 1.11375 0.78375 1.6875 1.1875 C1.6875 1.8475 1.6875 2.5075 1.6875 3.1875 C2.3475 3.1875 3.0075 3.1875 3.6875 3.1875 C3.6875 4.5075 3.6875 5.8275 3.6875 7.1875 C-1.06925676 11.1875 -1.06925676 11.1875 -4.5625 11.1875 C-6.91174243 9.84507576 -7.50522984 8.75608687 -8.3125 6.1875 C-8.25 4.125 -8.25 4.125 -7.3125 2.1875 C-3.21947674 -1.1311675 -3.21947674 -1.1311675 0 0 Z " fill="#870C58" transform="translate(92.3125,98.8125)"/>
<path d="M0 0 C2.33543703 0.99079147 4.10734656 2.2689811 6.0625 3.875 C5.7325 5.195 5.4025 6.515 5.0625 7.875 C4.4025 7.875 3.7425 7.875 3.0625 7.875 C3.0625 8.535 3.0625 9.195 3.0625 9.875 C0.0625 11.875 0.0625 11.875 -2.9375 11.875 C-4.82602948 9.44689067 -5.99675343 7.8823083 -5.8125 4.75 C-4.47592092 1.88590198 -3.4024346 -0.21951191 0 0 Z " fill="#8A0854" transform="translate(86.9375,86.125)"/>
<path d="M0 0 C2.84383123 1.2748209 5.13754018 2.45137078 7 5 C6.78252874 8.37080456 5.09785412 10.44609064 3 13 C-0.7952131 11.50902342 -2.61042731 9.24299151 -5 6 C-3.63016497 2.83884224 -3.0109362 2.0072908 0 0 Z " fill="#AD164E" transform="translate(38,83)"/>
<path d="M0 0 C2.32590854 3.63423209 2.16265833 6.77088331 2 11 C-0.97 11 -3.94 11 -7 11 C-7.33 8.03 -7.66 5.06 -8 2 C-5.09399739 0.74335022 -3.20395416 0 0 0 Z " fill="#660F4C" transform="translate(102,51)"/>
<path d="M0 0 C2.97 0 5.94 0 9 0 C9 3.3 9 6.6 9 10 C6.36 10.33 3.72 10.66 1 11 C-0.28317892 7.15046324 -0.06643637 4.05261865 0 0 Z " fill="#D31350" transform="translate(13,64)"/>
<path d="M0 0 C6.75 -0.125 6.75 -0.125 9 1 C8.67 4.3 8.34 7.6 8 11 C5.66705225 11.04241723 3.33297433 11.04092937 1 11 C0 10 0 10 -0.09765625 7.71484375 C-0.08605469 6.79832031 -0.07445312 5.88179687 -0.0625 4.9375 C-0.05347656 4.01839844 -0.04445313 3.09929688 -0.03515625 2.15234375 C-0.02355469 1.44207031 -0.01195312 0.73179688 0 0 Z " fill="#E50B54" transform="translate(14,50)"/>
<path d="M0 0 C1.85776765 3.13498292 2.20140476 5.37471432 2 9 C-2.35568513 11.05685131 -2.35568513 11.05685131 -5.125 10.8125 C-7.37337196 9.83820548 -8.58419208 9.01193757 -10 7 C-10.0625 5 -10.0625 5 -9 3 C-5.79116175 1.04679411 -3.7794561 0 0 0 Z " fill="#A80E4E" transform="translate(56,39)"/>
<path d="M0 0 C0 2.97 0 5.94 0 9 C-4.455 9.495 -4.455 9.495 -9 10 C-9.66 7.03 -10.32 4.06 -11 1 C-7.57067929 -0.71466036 -3.78283935 -0.05404056 0 0 Z " fill="#8D1449" transform="translate(65,25)"/>
<path d="M0 0 C2.31 0.66 4.62 1.32 7 2 C7.36923077 7.41538462 7.36923077 7.41538462 5.5 10.375 C5.005 10.91125 4.51 11.4475 4 12 C1.69 11.34 -0.62 10.68 -3 10 C-3.36629408 5.72656908 -2.40814077 3.51187196 0 0 Z " fill="#620E4C" transform="translate(105,78)"/>
<path d="M0 0 C1.375 1.8125 1.375 1.8125 2 4 C1.67 5.32 1.34 6.64 1 8 C-2.3 8.33 -5.6 8.66 -9 9 C-9 6.36 -9 3.72 -9 1 C-5.69708067 -1.07961587 -3.69218461 -1.36027854 0 0 Z " fill="#8C0D4E" transform="translate(79,94)"/>
<path d="M0 0 C2.64 0 5.28 0 8 0 C8.2954439 5.02254631 7.98514628 7.89542386 5 12 C2.32388302 11.63088042 1.1568531 11.15144437 -0.8125 9.25 C-2 7 -2 7 -1.75 4.375 C-1 2 -1 2 0 0 Z " fill="#8C0E50" transform="translate(72,64)"/>
<path d="M0 0 C4.7517398 0.43197635 6.92000054 1.32769295 10 5 C8.84826645 7.46800047 7.95216435 9.04783565 6 11 C2.55834679 10.64700993 0.93127462 9.95418308 -2 8 C-1.125 2.25 -1.125 2.25 0 0 Z " fill="#890C4F" transform="translate(81,30)"/>
<path d="M0 0 C2.15377564 2.62198774 3.40072174 4.64404172 4 8 C5.98 7.34 7.96 6.68 10 6 C10 5.34 10 4.68 10 4 C12 2.375 12 2.375 14 1 C14 1.66 14 2.32 14 3 C14.66 3.33 15.32 3.66 16 4 C15.34 4 14.68 4 14 4 C14.66 6.31 15.32 8.62 16 11 C18.475 11.495 18.475 11.495 21 12 C20.360625 12.103125 19.72125 12.20625 19.0625 12.3125 C18.381875 12.539375 17.70125 12.76625 17 13 C16.67 13.99 16.34 14.98 16 16 C16 14.68 16 13.36 16 12 C15.34 12 14.68 12 14 12 C13.34 11.01 12.68 10.02 12 9 C10.02 9.66 8.04 10.32 6 11 C6 10.34 6 9.68 6 9 C5.01 9 4.02 9 3 9 C3 9.66 3 10.32 3 11 C2.34 11 1.68 11 1 11 C0.525625 9.88625 0.05125 8.7725 -0.4375 7.625 C-1.25306463 5.73289006 -2.07856355 3.84287291 -3 2 C-2.01 2 -1.02 2 0 2 C0 1.34 0 0.68 0 0 Z " fill="#28031C" transform="translate(80,90)"/>
<path d="M0 0 C2.95529457 0.36040178 3.75137927 1.02476855 5.5625 3.3125 C4.00646229 7.13186528 1.60645069 9.57294438 -1.4375 12.3125 C-2.0975 12.3125 -2.7575 12.3125 -3.4375 12.3125 C-5.0625 9.5625 -5.0625 9.5625 -6.4375 6.3125 C-5.37251558 2.82709644 -3.75638082 0.48158728 0 0 Z " fill="#96085A" transform="translate(81.4375,75.6875)"/>
<path d="M0 0 C2.05078125 0.03255208 4.1015625 0.06510417 6.15234375 0.09765625 C6.27734375 6.72265625 6.27734375 6.72265625 5.15234375 10.09765625 C-1.59765625 10.22265625 -1.59765625 10.22265625 -3.84765625 9.09765625 C-2.85356362 0.1508226 -2.85356362 0.1508226 0 0 Z " fill="#6D0F4E" transform="translate(97.84765625,64.90234375)"/>
<path d="M0 0 C1.875 0.3125 1.875 0.3125 4 1 C6.56687367 4.8503105 5.83288724 6.58569763 5 11 C2.03 11 -0.94 11 -4 11 C-3.56179109 6.44262737 -3.14958831 3.42346555 0 0 Z " fill="#AB0E52" transform="translate(52,54)"/>
<path d="M0 0 C4.25177923 0.47241991 6.29969203 2.84964071 9 6 C9 6.99 9 7.98 9 9 C7.56853622 9.41713515 6.12941114 9.8080497 4.6875 10.1875 C3.88699219 10.40792969 3.08648437 10.62835938 2.26171875 10.85546875 C0 11 0 11 -1.8046875 9.671875 C-3 8 -3 8 -2.8125 6.0625 C-1.9873763 3.96795522 -1.06290513 1.98408958 0 0 Z " fill="#820F4B" transform="translate(71,51)"/>
<path d="M0 0 C0.95178554 2.56982095 1.00609339 3.97088712 0.4375 6.6875 C-1 9 -1 9 -4.125 9.8125 C-5.548125 9.9053125 -5.548125 9.9053125 -7 10 C-11 4.25 -11 4.25 -11 2 C-7.17010894 0.19769832 -4.21878192 -0.19622241 0 0 Z " fill="#A60B55" transform="translate(67,48)"/>
<path d="M0 0 C3.73044765 1.24348255 4.79540326 2.80713575 7 6 C7 6.99 7 7.98 7 9 C4.58978936 10.51754003 3.31664378 11.02316906 0.4375 10.8125 C-2.21131025 9.92956325 -3.45008229 9.32487657 -5 7 C-4.9101362 4.12435827 -4.19535888 3.18884692 -2.125 1.1875 C-1.42375 0.795625 -0.7225 0.40375 0 0 Z " fill="#860959" transform="translate(93,39)"/>
<path d="M0 0 C1.15837626 4.05431692 0.83691257 6.21812119 -1 10 C-4.50150804 9.70820766 -5.78286467 9.21713533 -8.3125 6.6875 C-10 4 -10 4 -10 0 C-6.30458414 -0.95024979 -3.69541586 -0.95024979 0 0 Z " fill="#A70E51" transform="translate(59,68)"/>
<path d="M0 0 C2.64 0 5.28 0 8 0 C8 0.66 8 1.32 8 2 C9.98 2.66 11.96 3.32 14 4 C14 4.66 14 5.32 14 6 C15.32 6 16.64 6 18 6 C18.268125 6.721875 18.53625 7.44375 18.8125 8.1875 C19.91599978 11.03120059 19.91599978 11.03120059 21.625 13.5 C23.14922071 16.27131037 23.26658771 17.88981006 23 21 C20.25722422 17.80009492 18.3697164 14.99500618 17 11 C16.01 11 15.02 11 14 11 C13.979375 10.401875 13.95875 9.80375 13.9375 9.1875 C13.09543384 6.56685398 13.09543384 6.56685398 9.4375 5.25 C8.303125 4.8375 7.16875 4.425 6 4 C6 3.34 6 2.68 6 2 C4.35 2 2.7 2 1 2 C0.67 1.34 0.34 0.68 0 0 Z " fill="#240019" transform="translate(70,36)"/>
<path d="M0 0 C4.95 0.99 4.95 0.99 10 2 C10.125 7.75 10.125 7.75 9 10 C6.03 9.67 3.06 9.34 0 9 C0 6.03 0 3.06 0 0 Z " fill="#9C0B55" transform="translate(68,25)"/>
<path d="M0 0 C2.04169485 2.90548882 3 4.40142046 3 8 C-1.32734391 10.22923777 -4.28400182 9.92470553 -9 9 C-8.34 6.36 -7.68 3.72 -7 1 C-2.25 0 -2.25 0 0 0 Z " fill="#A60A51" transform="translate(69,71)"/>
<path d="M0 0 C0.33 0.99 0.66 1.98 1 3 C1.66 3.33 2.32 3.66 3 4 C2.67 7.3 2.34 10.6 2 14 C3.65 14.33 5.3 14.66 7 15 C3.71324342 17.19117105 2.76450466 17.09652576 -1 17 C-1.66 17.33 -2.32 17.66 -3 18 C-3.66 17.34 -4.32 16.68 -5 16 C-4.34 16 -3.68 16 -3 16 C-1.19682779 12.03302114 -0.50797009 8.3177458 0 4 C-2.64 4 -5.28 4 -8 4 C-8.33 3.34 -8.66 2.68 -9 2 C-5.62902617 0.50178941 -3.79557881 0 0 0 Z " fill="#31031E" transform="translate(80,60)"/>
<path d="M0 0 C3 1 3 1 4.1875 2.6875 C5.19313465 5.54969093 5.13689641 7.98827908 5 11 C1.6875 11.3125 1.6875 11.3125 -2 11 C-4.0625 8.75 -4.0625 8.75 -5 6 C-4.03969728 2.63894049 -2.98299429 1.98866286 0 0 Z " fill="#780853" transform="translate(107,39)"/>
<path d="M0 0 C4.38000076 0.50057152 6.84169815 1.93193534 10 5 C10 5.99 10 6.98 10 8 C9.01 8.33 8.02 8.66 7 9 C6.67 9.66 6.34 10.32 6 11 C3.69 10.34 1.38 9.68 -1 9 C-0.67 6.03 -0.34 3.06 0 0 Z " fill="#950B57" transform="translate(73,39)"/>
<path d="M0 0 C2.25998595 3.59462331 2.20868087 6.56595675 2.125 10.75 C2.10695313 11.92046875 2.08890625 13.0909375 2.0703125 14.296875 C2.03550781 15.63492188 2.03550781 15.63492188 2 17 C2.99 17 3.98 17 5 17 C4.67 19.31 4.34 21.62 4 24 C-0.14112384 20.27298854 -1.86608918 17.28451855 -2.1953125 11.66796875 C-2.17210937 10.51941406 -2.14890625 9.37085937 -2.125 8.1875 C-2.10695312 7.02605469 -2.08890625 5.86460938 -2.0703125 4.66796875 C-2.04710937 3.78753906 -2.02390625 2.90710937 -2 2 C-1.34 2 -0.68 2 0 2 C0 1.34 0 0.68 0 0 Z " fill="#26010B" transform="translate(36,57)"/>
<path d="M0 0 C0.8353125 1.2065625 0.8353125 1.2065625 1.6875 2.4375 C4.21864487 5.24228216 5.32579134 5.69381595 9 6 C9 6.66 9 7.32 9 8 C8.01 8.33 7.02 8.66 6 9 C6.99 10.32 7.98 11.64 9 13 C7.35 14.32 5.7 15.64 4 17 C3.34 16.34 2.68 15.68 2 15 C2.66 14.34 3.32 13.68 4 13 C3.68134222 9.70720291 2.45484649 8.13464912 0 6 C-1.98 6.66 -3.96 7.32 -6 8 C-5.75 6.125 -5.75 6.125 -5 4 C-3 2.875 -3 2.875 -1 2 C-0.67 1.34 -0.34 0.68 0 0 Z " fill="#390317" transform="translate(40,78)"/>
<path d="M0 0 C1.32 0 2.64 0 4 0 C4 0.99 4 1.98 4 3 C6.64 2.67 9.28 2.34 12 2 C16.06153846 8.4 16.06153846 8.4 15.75 11.4375 C15.5025 11.953125 15.255 12.46875 15 13 C14.01 12.67 13.02 12.34 12 12 C12.66 12 13.32 12 14 12 C13.505 11.236875 13.01 10.47375 12.5 9.6875 C11 7 11 7 11 4 C8.69 4.33 6.38 4.66 4 5 C3.67 6.98 3.34 8.96 3 11 C2.01 10.67 1.02 10.34 0 10 C0.29296875 7.98177083 0.5859375 5.96354167 0.87890625 3.9453125 C1.1684297 1.91859333 1.1684297 1.91859333 0 0 Z " fill="#2D0111" transform="translate(58,67)"/>
<path d="M0 0 C0.66 0.33 1.32 0.66 2 1 C2 1.66 2 2.32 2 3 C2.66 3.33 3.32 3.66 4 4 C2.88625 4.61875 2.88625 4.61875 1.75 5.25 C-0.90171685 6.93745618 -2.86674014 8.70872089 -5 11 C-5 10.34 -5 9.68 -5 9 C-5.66 9 -6.32 9 -7 9 C-7.33 9.99 -7.66 10.98 -8 12 C-8.33 11.01 -8.66 10.02 -9 9 C-10.98723268 8.29618843 -12.98777953 7.6288189 -15 7 C-15.33 6.34 -15.66 5.68 -16 5 C-15.01 5 -14.02 5 -13 5 C-12.67 4.01 -12.34 3.02 -12 2 C-11.4225 2.639375 -10.845 3.27875 -10.25 3.9375 C-8.01937599 5.98223868 -6.92563609 6.58205199 -4 7 C-3.71125 6.401875 -3.4225 5.80375 -3.125 5.1875 C-2 3 -2 3 0 0 Z " fill="#450517" transform="translate(36,31)"/>
<path d="M0 0 C1.32 0 2.64 0 4 0 C3.67558396 1.66842534 3.34060811 3.33480481 3 5 C2.9175 5.721875 2.835 6.44375 2.75 7.1875 C2 9 2 9 -0.3125 10.125 C-1.199375 10.41375 -2.08625 10.7025 -3 11 C-4.34050052 11.65213539 -5.67661368 12.31379969 -7 13 C-7 13.66 -7 14.32 -7 15 C-8.32 15 -9.64 15 -11 15 C-10.67 13.35 -10.34 11.7 -10 10 C-9.195625 9.87625 -9.195625 9.87625 -8.375 9.75 C-5.04250689 8.69763375 -2.70095843 7.20987508 0 5 C0.50241322 2.3295947 0.50241322 2.3295947 0 0 Z " fill="#19020D" transform="translate(87,77)"/>
<path d="M0 0 C3.3 0 6.6 0 10 0 C10 2.31 10 4.62 10 7 C7.69 7 5.38 7 3 7 C3 5.68 3 4.36 3 3 C2.01 3 1.02 3 0 3 C0 2.01 0 1.02 0 0 Z " fill="#AF0855" transform="translate(59,108)"/>
<path d="M0 0 C0.33 0 0.66 0 1 0 C1.02705729 1.77074917 1.04642195 3.54161711 1.0625 5.3125 C1.07410156 6.29863281 1.08570312 7.28476563 1.09765625 8.30078125 C1 11 1 11 0 14 C-0.66 14 -1.32 14 -2 14 C-2.33 16.64 -2.66 19.28 -3 22 C-3.66 22 -4.32 22 -5 22 C-5 19.36 -5 16.72 -5 14 C-6.98 13.34 -8.96 12.68 -11 12 C-11 10.35 -11 8.7 -11 7 C-10.67 7.99 -10.34 8.98 -10 10 C-7.03 10.33 -4.06 10.66 -1 11 C-0.67 7.37 -0.34 3.74 0 0 Z " fill="#200219" transform="translate(116,66)"/>
<path d="M0 0 C0.33 0 0.66 0 1 0 C1.33 1.98 1.66 3.96 2 6 C4.31 6.33 6.62 6.66 9 7 C9 7.99 9 8.98 9 10 C6.03 10 3.06 10 0 10 C0.33 13.63 0.66 17.26 1 21 C0.34 21 -0.32 21 -1 21 C-1.10808032 13.90272572 -0.93854006 7.03905044 0 0 Z " fill="#510719" transform="translate(13,54)"/>
<path d="M0 0 C2.97 0.33 5.94 0.66 9 1 C8.625 3.9375 8.625 3.9375 8 7 C6 8 6 8 2.875 7.0625 C1.92625 6.711875 0.9775 6.36125 0 6 C0 4.02 0 2.04 0 0 Z " fill="#A3065A" transform="translate(74,16)"/>
<path d="M0 0 C0.99 0 1.98 0 3 0 C3 0.99 3 1.98 3 3 C2.34 3 1.68 3 1 3 C0.67 3.99 0.34 4.98 0 6 C-1.96722008 7.38123963 -3.96868328 8.71488126 -6 10 C-6.66 10.66 -7.32 11.32 -8 12 C-10.625 12.125 -10.625 12.125 -13 12 C-11.1875 10 -11.1875 10 -9 8 C-8.01 8 -7.02 8 -6 8 C-6 7.01 -6 6.02 -6 5 C-4.68 5 -3.36 5 -2 5 C-1.855625 4.360625 -1.71125 3.72125 -1.5625 3.0625 C-1 1 -1 1 0 0 Z " fill="#1E0113" transform="translate(103,98)"/>
<path d="M0 0 C0.66 0 1.32 0 2 0 C2.33 0.99 2.66 1.98 3 3 C3.66 3 4.32 3 5 3 C5.33 2.34 5.66 1.68 6 1 C6.99 2.65 7.98 4.3 9 6 C8.01 7.485 8.01 7.485 7 9 C6.34 8.01 5.68 7.02 5 6 C1.45481116 7.39759905 1.45481116 7.39759905 -2 9 C-4.125 8.0625 -4.125 8.0625 -6 7 C-5.195625 6.5875 -4.39125 6.175 -3.5625 5.75 C-0.85890282 4.26547669 -0.85890282 4.26547669 -0.1875 1.8125 C-0.125625 1.214375 -0.06375 0.61625 0 0 Z " fill="#320223" transform="translate(90,34)"/>
<path d="M0 0 C2.64 0 5.28 0 8 0 C8 1.98 8 3.96 8 6 C5.36 6 2.72 6 0 6 C0 4.02 0 2.04 0 0 Z " fill="#B20854" transform="translate(61,15)"/>
<path d="M0 0 C4.875 0.875 4.875 0.875 6 2 C6.04080783 3.99958364 6.04254356 6.00045254 6 8 C3.69 8 1.38 8 -1 8 C-0.67 5.36 -0.34 2.72 0 0 Z " fill="#760367" transform="translate(108,67)"/>
<path d="M0 0 C6.75 -0.125 6.75 -0.125 9 1 C8.67 4.3 8.34 7.6 8 11 C5.66705225 11.04241723 3.33297433 11.04092937 1 11 C0 10 0 10 -0.09765625 7.71484375 C-0.08605469 6.79832031 -0.07445312 5.88179687 -0.0625 4.9375 C-0.05347656 4.01839844 -0.04445313 3.09929688 -0.03515625 2.15234375 C-0.02355469 1.44207031 -0.01195312 0.73179688 0 0 Z M2 1 C0.58422523 2.18424326 0.58422523 2.18424326 0.9375 5.5625 C0.958125 6.696875 0.97875 7.83125 1 9 C3.97 9.495 3.97 9.495 7 10 C7.26932521 5.34947128 7.26932521 5.34947128 6 1 C4.68 1 3.36 1 2 1 Z " fill="#B4184B" transform="translate(14,50)"/>
<path d="M0 0 C1.47906892 -0.02689216 2.95827483 -0.04634621 4.4375 -0.0625 C5.26121094 -0.07410156 6.08492188 -0.08570312 6.93359375 -0.09765625 C9 0 9 0 10 1 C10.14115161 3.67058851 10.04247107 6.32432238 10 9 C8.35425434 9.02688151 6.70838587 9.04634123 5.0625 9.0625 C4.14597656 9.07410156 3.22945312 9.08570312 2.28515625 9.09765625 C0 9 0 9 -1 8 C-0.82364548 5.30917128 -0.38164079 2.67148554 0 0 Z M1 1 C1 2.98 1 4.96 1 7 C3.31 7.33 5.62 7.66 8 8 C8.33 5.69 8.66 3.38 9 1 C6.36 1 3.72 1 1 1 Z " fill="#91124B" transform="translate(58,95)"/>
<path d="M0 0 C0.556875 0.391875 1.11375 0.78375 1.6875 1.1875 C1.6875 1.8475 1.6875 2.5075 1.6875 3.1875 C2.3475 3.1875 3.0075 3.1875 3.6875 3.1875 C3.6875 4.5075 3.6875 5.8275 3.6875 7.1875 C1.7075 8.1775 1.7075 8.1775 -0.3125 9.1875 C-0.3125 7.85416667 -0.3125 6.52083333 -0.3125 5.1875 C-3.21323181 4.50948966 -3.21323181 4.50948966 -6.3125 4.1875 C-6.9725 4.8475 -7.6325 5.5075 -8.3125 6.1875 C-8.125 4.375 -8.125 4.375 -7.3125 2.1875 C-3.21947674 -1.1311675 -3.21947674 -1.1311675 0 0 Z " fill="#790C54" transform="translate(92.3125,98.8125)"/>
<path d="M0 0 C4.875 0.875 4.875 0.875 6 2 C6.04063832 3.66617115 6.042721 5.33388095 6 7 C3.36 7 0.72 7 -2 7 C-1.42415568 4.61435923 -0.77772405 2.33317216 0 0 Z " fill="#7F0362" transform="translate(105,80)"/>
<path d="M0 0 C1.98 0.66 3.96 1.32 6 2 C5.67 3.65 5.34 5.3 5 7 C4.01 7.33 3.02 7.66 2 8 C-0.1875 6.5625 -0.1875 6.5625 -2 5 C-1.125 1.125 -1.125 1.125 0 0 Z " fill="#890454" transform="translate(98,31)"/>
<path d="M0 0 C2.69082872 0.17635452 5.32851446 0.61835921 8 1 C7.67 2.32 7.34 3.64 7 5 C2.545 5.495 2.545 5.495 -2 6 C-1.125 1.125 -1.125 1.125 0 0 Z " fill="#CC0755" transform="translate(46,105)"/>
<path d="M0 0 C6.75 -0.125 6.75 -0.125 9 1 C9 2.98 9 4.96 9 7 C8.01 7 7.02 7 6 7 C5.67 5.02 5.34 3.04 5 1 C3.68 1 2.36 1 1 1 C1 3.97 1 6.94 1 10 C2.98 10 4.96 10 7 10 C7 10.33 7 10.66 7 11 C4.69 11 2.38 11 0 11 C0 7.37 0 3.74 0 0 Z " fill="#B3184B" transform="translate(25,60)"/>
<path d="M0 0 C0 2.31 0 4.62 0 7 C-1.98 7 -3.96 7 -6 7 C-6 6.01 -6 5.02 -6 4 C-6.99 3.67 -7.98 3.34 -9 3 C-9 2.34 -9 1.68 -9 1 C-5.92677456 0.08941469 -3.19902639 -0.08886184 0 0 Z " fill="#B70955" transform="translate(64,26)"/>
<path d="M0 0 C2.31 0.33 4.62 0.66 7 1 C7 2.32 7 3.64 7 5 C6.01 5 5.02 5 4 5 C4 6.32 4 7.64 4 9 C3.01 9 2.02 9 1 9 C-0.4783226 6.04335481 -0.06032783 3.25770263 0 0 Z " fill="#D50652" transform="translate(38,62)"/>
<path d="M0 0 C0.80824219 0.19464844 1.61648437 0.38929687 2.44921875 0.58984375 C3.06410156 0.74582031 3.67898437 0.90179688 4.3125 1.0625 C3.9825 3.3725 3.6525 5.6825 3.3125 8.0625 C2.9825 8.0625 2.6525 8.0625 2.3125 8.0625 C2.3125 6.4125 2.3125 4.7625 2.3125 3.0625 C-0.6575 2.7325 -3.6275 2.4025 -6.6875 2.0625 C-7.0175 5.6925 -7.3475 9.3225 -7.6875 13.0625 C-8.0175 13.0625 -8.3475 13.0625 -8.6875 13.0625 C-8.71458567 11.45842672 -8.73393483 9.8542215 -8.75 8.25 C-8.76160156 7.35667969 -8.77320313 6.46335937 -8.78515625 5.54296875 C-8.6875 3.0625 -8.6875 3.0625 -7.6875 0.0625 C-4.39053895 -1.03648702 -3.28255097 -0.80874444 0 0 Z " fill="#38010D" transform="translate(20.6875,47.9375)"/>
<path d="M0 0 C2 2 2 2 2 6 C3.32 6 4.64 6 6 6 C6.33 8.31 6.66 10.62 7 13 C4.525 12.01 4.525 12.01 2 11 C1.67 11.66 1.34 12.32 1 13 C-0.10228696 8.59085217 -0.07654536 4.51617599 0 0 Z " fill="#25030A" transform="translate(16,83)"/>
<path d="M0 0 C2.56695636 0.39491636 4.67123994 0.83561997 7 2 C7 3.32 7 4.64 7 6 C4.36 6 1.72 6 -1 6 C-1.042721 4.33388095 -1.04063832 2.66617115 -1 1 C-0.67 0.67 -0.34 0.34 0 0 Z " fill="#BF0855" transform="translate(50,16)"/>
<path d="M0 0 C0.33 2.31 0.66 4.62 1 7 C-0.65 7 -2.3 7 -4 7 C-4 6.01 -4 5.02 -4 4 C-4.99 3.34 -5.98 2.68 -7 2 C-7 1.34 -7 0.68 -7 0 C-3.98968256 -0.93423645 -3.13349732 -1.04449911 0 0 Z " fill="#C90856" transform="translate(49,76)"/>
<path d="M0 0 C0 1.65 0 3.3 0 5 C0.99 5 1.98 5 3 5 C3 5.99 3 6.98 3 8 C0.03 7.505 0.03 7.505 -3 7 C-3 6.34 -3 5.68 -3 5 C-3.99 4.67 -4.98 4.34 -6 4 C-5.67 3.01 -5.34 2.02 -5 1 C-3 0 -3 0 0 0 Z " fill="#9A055E" transform="translate(87,50)"/>
<path d="M0 0 C1.98 0 3.96 0 6 0 C5.67 2.31 5.34 4.62 5 7 C3.68 7.33 2.36 7.66 1 8 C-0.35439668 5.29120665 -0.06501451 2.99066732 0 0 Z " fill="#8A0361" transform="translate(97,66)"/>
<path d="M0 0 C1.65 0 3.3 0 5 0 C6.4783226 2.95664519 6.06032783 5.74229737 6 9 C4.35 8.67 2.7 8.34 1 8 C1 6.68 1 5.36 1 4 C1.66 4 2.32 4 3 4 C3 3.34 3 2.68 3 2 C2.01 2 1.02 2 0 2 C0 1.34 0 0.68 0 0 Z " fill="#840653" transform="translate(96,52)"/>
<path d="M0 0 C0.268125 0.61875 0.53625 1.2375 0.8125 1.875 C1.95556848 4.2995233 1.95556848 4.2995233 5 6 C5 5.01 5 4.02 5 3 C5.99 3.33 6.98 3.66 8 4 C6.38405168 6.04119788 4.7143618 8.04072937 3 10 C2.34 10 1.68 10 1 10 C-0.625 7.25 -0.625 7.25 -2 4 C-1.1875 1.625 -1.1875 1.625 0 0 Z " fill="#880F4E" transform="translate(77,78)"/>
<path d="M0 0 C3.34373475 0.55728913 6.03312999 1.35173889 9 3 C8.34 5.64 7.68 8.28 7 11 C5.02 11 3.04 11 1 11 C0.67 10.34 0.34 9.68 0 9 C2.97 9.495 2.97 9.495 6 10 C6.16687448 7.58354218 6.16687448 7.58354218 6 5 C4.16116119 2.71271266 4.16116119 2.71271266 1.375 2.875 C0.199375 2.936875 0.199375 2.936875 -1 3 C-0.67 2.01 -0.34 1.02 0 0 Z " fill="#8D1144" transform="translate(47,91)"/>
<path d="M0 0 C1.65 0.33 3.3 0.66 5 1 C5.33 1.99 5.66 2.98 6 4 C5.01 4 4.02 4 3 4 C3 4.66 3 5.32 3 6 C1.68 6.33 0.36 6.66 -1 7 C-1.33 5.35 -1.66 3.7 -2 2 C-1.34 2 -0.68 2 0 2 C0 1.34 0 0.68 0 0 Z " fill="#890461" transform="translate(98,92)"/>
<path d="M0 0 C0.99 0.33 1.98 0.66 3 1 C3 2.32 3 3.64 3 5 C3.99 5.33 4.98 5.66 6 6 C1.25 9 1.25 9 -1 9 C-1.33 9.99 -1.66 10.98 -2 12 C-3.65 10.02 -5.3 8.04 -7 6 C-4.525 6.99 -4.525 6.99 -2 8 C-1.67 7.01 -1.34 6.02 -1 5 C-0.01 5 0.98 5 2 5 C1.34 3.35 0.68 1.7 0 0 Z " fill="#450625" transform="translate(81,42)"/>
<path d="M0 0 C1.65 0 3.3 0 5 0 C6.33332095 2.6666419 5.67102033 4.16680303 5 7 C3.35 7 1.7 7 0 7 C0 4.69 0 2.38 0 0 Z " fill="#AF085A" transform="translate(65,84)"/>
<path d="M0 0 C1.98 0 3.96 0 6 0 C5.67 0.66 5.34 1.32 5 2 C4.01 2 3.02 2 2 2 C2.99 4.97 3.98 7.94 5 11 C4.01 11 3.02 11 2 11 C1.47007308 9.54494642 0.9513211 8.08581873 0.4375 6.625 C0.14746094 5.81289062 -0.14257812 5.00078125 -0.44140625 4.1640625 C-1 2 -1 2 0 0 Z " fill="#2E0108" transform="translate(24,72)"/>
<path d="M0 0 C0.66 0 1.32 0 2 0 C2 0.66 2 1.32 2 2 C2.99 1.67 3.98 1.34 5 1 C5 1.99 5 2.98 5 4 C4.01 4 3.02 4 2 4 C1.87625 4.598125 1.7525 5.19625 1.625 5.8125 C1 8 1 8 -1 11 C-1.33 10.67 -1.66 10.34 -2 10 C-1.29411765 2.58823529 -1.29411765 2.58823529 0 0 Z " fill="#180304" transform="translate(18,32)"/>
<path d="M0 0 C0.433125 0.61875 0.86625 1.2375 1.3125 1.875 C2.99740483 4.2197245 2.99740483 4.2197245 6 6 C4.5903653 6.70180531 3.17192359 7.38593958 1.75 8.0625 C0.96109375 8.44535156 0.1721875 8.82820313 -0.640625 9.22265625 C-3.25993522 10.08564091 -4.44855176 9.93045933 -7 9 C-4.69 8.34 -2.38 7.68 0 7 C-0.66 5.02 -1.32 3.04 -2 1 C-1.34 0.67 -0.68 0.34 0 0 Z " fill="#34031D" transform="translate(84,105)"/>
<path d="M0 0 C0.99 1.485 0.99 1.485 2 3 C6.09246775 4.12264974 6.09246775 4.12264974 10 3 C9.34 4.32 8.68 5.64 8 7 C7.34 7 6.68 7 6 7 C6 8.65 6 10.3 6 12 C5.01 12 4.02 12 3 12 C3.66 10.35 4.32 8.7 5 7 C2.525 6.01 2.525 6.01 0 5 C0 3.35 0 1.7 0 0 Z " fill="#3A0526" transform="translate(101,85)"/>
<path d="M0 0 C2.99332739 0.9977758 3.94766315 1.7522025 6 4 C5.34 4 4.68 4 4 4 C4 5.32 4 6.64 4 8 C5.65 8 7.3 8 9 8 C8.01 8.99 7.02 9.98 6 11 C3 10 3 10 2.05078125 8.22265625 C1.80714844 7.50980469 1.56351563 6.79695313 1.3125 6.0625 C1.06113281 5.35222656 0.80976563 4.64195313 0.55078125 3.91015625 C0 2 0 2 0 0 Z " fill="#AD1749" transform="translate(26,74)"/>
<path d="M0 0 C0.99 0 1.98 0 3 0 C2.34 1.98 1.68 3.96 1 6 C-1.31 6 -3.62 6 -6 6 C-6 4.68 -6 3.36 -6 2 C-4.02 2 -2.04 2 0 2 C0 1.34 0 0.68 0 0 Z " fill="#E50B52" transform="translate(24,41)"/>
<path d="M0 0 C-0.33 1.98 -0.66 3.96 -1 6 C-3.31 5.34 -5.62 4.68 -8 4 C-8 3.01 -8 2.02 -8 1 C-5.07175348 0.02391783 -3.04386724 -0.08226668 0 0 Z " fill="#A4065F" transform="translate(79,95)"/>
<path d="M0 0 C1.65 0 3.3 0 5 0 C5 2.31 5 4.62 5 7 C3.35 6.67 1.7 6.34 0 6 C-1.125 2.25 -1.125 2.25 0 0 Z " fill="#A2035B" transform="translate(82,32)"/>
<path d="M0 0 C2.97 0.495 2.97 0.495 6 1 C6 3.97 6 6.94 6 10 C3.36 9.67 0.72 9.34 -2 9 C-2 8.67 -2 8.34 -2 8 C0.31 8 2.62 8 5 8 C3.8141763 4.62496331 2.72426311 2.35277269 0 0 Z " fill="#8B1347" transform="translate(56,82)"/>
<path d="M0 0 C1.42944945 2.35438733 2.08661261 3.48032433 1.625 6.25 C1.41875 6.8275 1.2125 7.405 1 8 C1 7.01 1 6.02 1 5 C0.01 5 -0.98 5 -2 5 C-2 4.34 -2 3.68 -2 3 C-4.64 3.66 -7.28 4.32 -10 5 C-6.99385784 1.69324363 -4.54252119 0 0 0 Z " fill="#A5144A" transform="translate(44,18)"/>
<path d="M0 0 C3.3 0 6.6 0 10 0 C10.33 2.97 10.66 5.94 11 9 C10.01 9 9.02 9 8 9 C7.67 6.36 7.34 3.72 7 1 C4.69 1 2.38 1 0 1 C0 0.67 0 0.34 0 0 Z " fill="#42021E" transform="translate(50,13)"/>
<path d="M0 0 C0.99 0.66 1.98 1.32 3 2 C3 2.99 3 3.98 3 5 C-1.32734391 7.22923777 -4.28400182 6.92470553 -9 6 C-8.67 4.35 -8.34 2.7 -8 1 C-7.67 2.32 -7.34 3.64 -7 5 C-4.69 5 -2.38 5 0 5 C0 3.35 0 1.7 0 0 Z " fill="#8B124E" transform="translate(69,74)"/>
<path d="M0 0 C0.33 2.64 0.66 5.28 1 8 C0.67 6.68 0.34 5.36 0 4 C-2.64 4 -5.28 4 -8 4 C-8.33 3.34 -8.66 2.68 -9 2 C-5.62902617 0.50178941 -3.79557881 0 0 0 Z " fill="#3F0823" transform="translate(80,60)"/>
<path d="M0 0 C0.66 0.33 1.32 0.66 2 1 C-2.27575688 5.13782924 -6.31953056 6.05944297 -12 7 C-12 6.34 -12 5.68 -12 5 C-12.99 4.67 -13.98 4.34 -15 4 C-14.25234375 3.87882812 -13.5046875 3.75765625 -12.734375 3.6328125 C-11.74953125 3.46523437 -10.7646875 3.29765625 -9.75 3.125 C-8.77546875 2.96257812 -7.8009375 2.80015625 -6.796875 2.6328125 C-4.01904424 2.12397913 -4.01904424 2.12397913 -1.765625 0.8671875 C-1.18296875 0.58101563 -0.6003125 0.29484375 0 0 Z " fill="#16010A" transform="translate(88,111)"/>
<path d="M0 0 C3.3 0 6.6 0 10 0 C10 1.32 10 2.64 10 4 C9.34 4 8.68 4 8 4 C8 3.34 8 2.68 8 2 C5.36 2.99 2.72 3.98 0 5 C0 3.35 0 1.7 0 0 Z " fill="#24020A" transform="translate(36,16)"/>
<path d="M0 0 C0.66 0 1.32 0 2 0 C2 1.32 2 2.64 2 4 C5.3 4.33 8.6 4.66 12 5 C12 5.33 12 5.66 12 6 C10.18818595 6.19401633 8.37551468 6.38004375 6.5625 6.5625 C5.04849609 6.71912109 5.04849609 6.71912109 3.50390625 6.87890625 C2.67761719 6.91886719 1.85132813 6.95882812 1 7 C0 6 0 6 -0.0625 2.9375 C-0.041875 1.968125 -0.02125 0.99875 0 0 Z " fill="#18000F" transform="translate(54,100)"/>
<path d="M0 0 C0.33 1.32 0.66 2.64 1 4 C4.465 3.505 4.465 3.505 8 3 C8 4.65 8 6.3 8 8 C5.33333333 7.33333333 2.66666667 6.66666667 0 6 C0 4.02 0 2.04 0 0 Z " fill="#85094B" transform="translate(82,68)"/>
<path d="M0 0 C2.475 0.495 2.475 0.495 5 1 C5.33 2.65 5.66 4.3 6 6 C4.68 6.33 3.36 6.66 2 7 C2 5.68 2 4.36 2 3 C1.34 3 0.68 3 0 3 C0 2.01 0 1.02 0 0 Z " fill="#EB0952" transform="translate(17,79)"/>
<path d="M0 0 C1.65 0 3.3 0 5 0 C5.33 0.99 5.66 1.98 6 3 C1.25 7 1.25 7 -1 7 C-0.67 4.69 -0.34 2.38 0 0 Z " fill="#D90C54" transform="translate(28,50)"/>
<path d="M0 0 C2.56616632 3.84924948 2.55097676 6.4349304 3 11 C2.34 10.34 1.68 9.68 1 9 C-1.06874034 8.3574765 -1.06874034 8.3574765 -3 8 C-2.01 8 -1.02 8 0 8 C0 7.34 0 6.68 0 6 C-2.31 6 -4.62 6 -7 6 C-7 5.67 -7 5.34 -7 5 C-4.69 5 -2.38 5 0 5 C0 3.35 0 1.7 0 0 Z " fill="#4B0E3B" transform="translate(112,45)"/>
<path d="M0 0 C0.99 0.66 1.98 1.32 3 2 C3 2.99 3 3.98 3 5 C0.64561267 6.42944945 -0.48032433 7.08661261 -3.25 6.625 C-3.8275 6.41875 -4.405 6.2125 -5 6 C-4.01 6 -3.02 6 -2 6 C-2.33 4.35 -2.66 2.7 -3 1 C-2.01 0.67 -1.02 0.34 0 0 Z " fill="#770C51" transform="translate(97,43)"/>
<path d="M0 0 C1.32 0.99 2.64 1.98 4 3 C2.62845496 5.95409701 1.01136276 8.44008376 -1 11 C-2.32 10.34 -3.64 9.68 -5 9 C-3.68 9 -2.36 9 -1 9 C-1 7.68 -1 6.36 -1 5 C-0.34 5 0.32 5 1 5 C0.67 3.35 0.34 1.7 0 0 Z " fill="#A41349" transform="translate(40,37)"/>
<path d="M0 0 C2.31 0.33 4.62 0.66 7 1 C7 2.32 7 3.64 7 5 C5.35 5 3.7 5 2 5 C1.34 3.35 0.68 1.7 0 0 Z " fill="#8F0562" transform="translate(88,24)"/>
<path d="M0 0 C1.25664978 2.90600261 2 4.79604584 2 8 C0.02 8.66 -1.96 9.32 -4 10 C-3.690625 9.4225 -3.38125 8.845 -3.0625 8.25 C-2.07416636 6.15705816 -1.4831387 4.25464725 -1 2 C-2.32 1.67 -3.64 1.34 -5 1 C-2 0 -2 0 0 0 Z " fill="#81104C" transform="translate(82,104)"/>
<path d="M0 0 C0.99 0 1.98 0 3 0 C2.34 2.31 1.68 4.62 1 7 C0.34 7 -0.32 7 -1 7 C-1 6.34 -1 5.68 -1 5 C-2.65 5 -4.3 5 -6 5 C-4.6875 3.5 -4.6875 3.5 -3 2 C-2.01 2 -1.02 2 0 2 C0 1.34 0 0.68 0 0 Z " fill="#16020F" transform="translate(83,99)"/>
<path d="M0 0 C2.15377564 2.62198774 3.40072174 4.64404172 4 8 C3.34 8 2.68 8 2 8 C1.67 8.99 1.34 9.98 1 11 C0.525625 9.88625 0.05125 8.7725 -0.4375 7.625 C-1.25306463 5.73289006 -2.07856355 3.84287291 -3 2 C-2.01 2 -1.02 2 0 2 C0 1.34 0 0.68 0 0 Z " fill="#40062C" transform="translate(80,90)"/>
<path d="M0 0 C1.32 0 2.64 0 4 0 C4 2.97 4 5.94 4 9 C2.68 8.67 1.36 8.34 0 8 C0 6.68 0 5.36 0 4 C0.66 4 1.32 4 2 4 C2 3.34 2 2.68 2 2 C1.34 2 0.68 2 0 2 C0 1.34 0 0.68 0 0 Z " fill="#7A0364" transform="translate(109,54)"/>
<path d="M0 0 C0.66 0 1.32 0 2 0 C2 1.32 2 2.64 2 4 C2.99 4 3.98 4 5 4 C4.34 5.32 3.68 6.64 3 8 C1.68 7.67 0.36 7.34 -1 7 C-0.67 4.69 -0.34 2.38 0 0 Z " fill="#AC055E" transform="translate(72,52)"/>
<path d="M0 0 C0.33 0.66 0.66 1.32 1 2 C1.66 2 2.32 2 3 2 C2.67 2.99 2.34 3.98 2 5 C-0.4375 6.125 -0.4375 6.125 -3 7 C-3.99 7.495 -3.99 7.495 -5 8 C-5 7.34 -5 6.68 -5 6 C-5.99 5.67 -6.98 5.34 -8 5 C-5.34771188 3.92474806 -2.71631546 2.90543849 0 2 C0 1.34 0 0.68 0 0 Z " fill="#270420" transform="translate(107,35)"/>
<path d="M0 0 C2.97 0.495 2.97 0.495 6 1 C6 1.33 6 1.66 6 2 C4.35 2 2.7 2 1 2 C1 3.65 1 5.3 1 7 C1.66 7.33 2.32 7.66 3 8 C3 8.66 3 9.32 3 10 C0.525 9.01 0.525 9.01 -2 8 C-1.125 2.25 -1.125 2.25 0 0 Z " fill="#761146" transform="translate(81,30)"/>
<path d="M0 0 C2.31 0.33 4.62 0.66 7 1 C6.360625 1.20625 5.72125 1.4125 5.0625 1.625 C2.65074923 2.89538209 2.65074923 2.89538209 2.25 6.125 C2.1675 7.07375 2.085 8.0225 2 9 C4.97 9.495 4.97 9.495 8 10 C8 10.66 8 11.32 8 12 C5.69 11.34 3.38 10.68 1 10 C0.67 6.7 0.34 3.4 0 0 Z " fill="#580F35" transform="translate(72,13)"/>
<path d="M0 0 C0 0.66 0 1.32 0 2 C-0.66 2 -1.32 2 -2 2 C-1.34 3.65 -0.68 5.3 0 7 C-1.32 7 -2.64 7 -4 7 C-4.66 5.68 -5.32 4.36 -6 3 C-3.375 0 -3.375 0 0 0 Z " fill="#D40852" transform="translate(41,85)"/>
<path d="M0 0 C0.598125 0.78375 1.19625 1.5675 1.8125 2.375 C3.91085249 5.14574323 3.91085249 5.14574323 7 7 C6.01 7 5.02 7 4 7 C4 7.66 4 8.32 4 9 C3.34 9 2.68 9 2 9 C1.566875 8.05125 1.13375 7.1025 0.6875 6.125 C-0.79302201 2.79958063 -0.79302201 2.79958063 -4 1 C-2.68 0.67 -1.36 0.34 0 0 Z " fill="#3C041F" transform="translate(56,52)"/>
<path d="M0 0 C0 1.98 0 3.96 0 6 C-2.38564077 5.42415568 -4.66682784 4.77772405 -7 4 C-7 3.34 -7 2.68 -7 2 C-2.25 0 -2.25 0 0 0 Z " fill="#C10557" transform="translate(56,40)"/>
<path d="M0 0 C1.98 0 3.96 0 6 0 C6 1.65 6 3.3 6 5 C3.03 4.505 3.03 4.505 0 4 C0 2.68 0 1.36 0 0 Z " fill="#A70461" transform="translate(73,65)"/>
<path d="M0 0 C1.2065625 0.0309375 1.2065625 0.0309375 2.4375 0.0625 C2.7675 0.7225 3.0975 1.3825 3.4375 2.0625 C2.2309375 2.495625 2.2309375 2.495625 1 2.9375 C-1.6951468 3.79512568 -1.6951468 3.79512568 -2.5625 6.0625 C-3.5525 6.0625 -4.5425 6.0625 -5.5625 6.0625 C-3.26136364 0.07954545 -3.26136364 0.07954545 0 0 Z " fill="#D20755" transform="translate(44.5625,51.9375)"/>
<path d="M0 0 C0.33 0.99 0.66 1.98 1 3 C1.99 3 2.98 3 4 3 C4 4.32 4 5.64 4 7 C2.35 6.67 0.7 6.34 -1 6 C-1.33 5.01 -1.66 4.02 -2 3 C-1.34 2.01 -0.68 1.02 0 0 Z " fill="#D40B54" transform="translate(35,39)"/>
<path d="M0 0 C2.31 0 4.62 0 7 0 C7.33 1.32 7.66 2.64 8 4 C5.36 4 2.72 4 0 4 C-0.33 3.34 -0.66 2.68 -1 2 C-0.67 1.34 -0.34 0.68 0 0 Z " fill="#CA0958" transform="translate(44,31)"/>
<path d="M0 0 C3.465 1.98 3.465 1.98 7 4 C6.67 4.66 6.34 5.32 6 6 C3.69 5.67 1.38 5.34 -1 5 C-1.33 4.01 -1.66 3.02 -2 2 C-1.34 2 -0.68 2 0 2 C0 1.34 0 0.68 0 0 Z " fill="#160105" transform="translate(33,106)"/>
<path d="M0 0 C2 3.875 2 3.875 2 5 C-2.29 5 -6.58 5 -11 5 C-11 4.67 -11 4.34 -11 4 C-9.35 3.67 -7.7 3.34 -6 3 C-6 2.67 -6 2.34 -6 2 C-4.02 2 -2.04 2 0 2 C0 1.34 0 0.68 0 0 Z " fill="#33011D" transform="translate(68,102)"/>
<path d="M0 0 C1.32 0 2.64 0 4 0 C3.67 1.65 3.34 3.3 3 5 C1.68 5 0.36 5 -1 5 C-0.67 3.35 -0.34 1.7 0 0 Z " fill="#D40D4E" transform="translate(27,94)"/>
<path d="M0 0 C1.32 0.99 2.64 1.98 4 3 C3.625 4.9375 3.625 4.9375 3 7 C2.01 7.495 2.01 7.495 1 8 C1 7.01 1 6.02 1 5 C0.01 4.67 -0.98 4.34 -2 4 C-2 3.34 -2 2.68 -2 2 C-1.34 2 -0.68 2 0 2 C0 1.34 0 0.68 0 0 Z " fill="#B70F4D" transform="translate(41,85)"/>
<path d="M0 0 C1.65 0 3.3 0 5 0 C5.33 0.99 5.66 1.98 6 3 C5.67 3.66 5.34 4.32 5 5 C3.35 4.67 1.7 4.34 0 4 C0 2.68 0 1.36 0 0 Z " fill="#B8095E" transform="translate(53,85)"/>
<path d="M0 0 C0.33 0.99 0.66 1.98 1 3 C2.36773127 6.223938 2.93708225 6.95805483 6 9 C5.01 9.495 5.01 9.495 4 10 C1.375 8.5625 1.375 8.5625 -1 7 C-1.33 7.66 -1.66 8.32 -2 9 C-2.33 8.34 -2.66 7.68 -3 7 C-2.06421005 4.64018187 -1.06652192 2.30368736 0 0 Z " fill="#5E0D3E" transform="translate(91,79)"/>
<path d="M0 0 C0 0.99 0 1.98 0 3 C0.99 3 1.98 3 3 3 C3 4.98 3 6.96 3 9 C2.67 9 2.34 9 2 9 C2 7.35 2 5.7 2 4 C-1.3 3.34 -4.6 2.68 -8 2 C-8 1.67 -8 1.34 -8 1 C-5.23735711 0.40267181 -2.83967231 0 0 0 Z " fill="#430325" transform="translate(76,23)"/>
<path d="M0 0 C1.32 0 2.64 0 4 0 C4 0.99 4 1.98 4 3 C3.34 3 2.68 3 2 3 C2 4.65 2 6.3 2 8 C2.99 8.33 3.98 8.66 5 9 C3.68 9 2.36 9 1 9 C0.67 6.03 0.34 3.06 0 0 Z " fill="#7B1149" transform="translate(72,106)"/>
<path d="M0 0 C2.97 0.495 2.97 0.495 6 1 C6 2.32 6 3.64 6 5 C4.68 5 3.36 5 2 5 C2 4.34 2 3.68 2 3 C1.34 3 0.68 3 0 3 C0 2.01 0 1.02 0 0 Z " fill="#760765" transform="translate(106,45)"/>
<path d="M0 0 C2.52588702 2.36292656 3.88820837 3.66462511 5 7 C4.5625 9.1875 4.5625 9.1875 4 11 C3.01 10.67 2.02 10.34 1 10 C1.66 10 2.32 10 3 10 C2.2575 8.9171875 2.2575 8.9171875 1.5 7.8125 C-0.07919285 4.85151341 -0.28178312 3.28746971 0 0 Z " fill="#3F0220" transform="translate(69,69)"/>
<path d="M0 0 C1.98 0 3.96 0 6 0 C6 1.32 6 2.64 6 4 C4.35 4 2.7 4 1 4 C0.67 2.68 0.34 1.36 0 0 Z " fill="#990456" transform="translate(85,63)"/>
<path d="M0 0 C1.875 0.3125 1.875 0.3125 4 1 C6.1519437 4.22791555 6.20086443 5.28400809 6 9 C5.67 7.68 5.34 6.36 5 5 C4.01 5 3.02 5 2 5 C2 4.01 2 3.02 2 2 C0.68 2.33 -0.64 2.66 -2 3 C-1.34 2.01 -0.68 1.02 0 0 Z " fill="#9B124B" transform="translate(52,54)"/>
<path d="M0 0 C2.475 0.495 2.475 0.495 5 1 C5 1.66 5 2.32 5 3 C4.34 3 3.68 3 3 3 C3.33 4.65 3.66 6.3 4 8 C3.34 8 2.68 8 2 8 C-0.1519437 4.77208445 -0.20086443 3.71599191 0 0 Z " fill="#7C0A4D" transform="translate(94,53)"/>
<path d="M0 0 C0.8353125 0.7734375 0.8353125 0.7734375 1.6875 1.5625 C3.94085007 3.29476698 3.94085007 3.29476698 6.75 2.6875 C7.4925 2.460625 8.235 2.23375 9 2 C8.67 2.99 8.34 3.98 8 5 C6.68 5 5.36 5 4 5 C3.67 5.99 3.34 6.98 3 8 C0 3.375 0 3.375 0 0 Z " fill="#4F0423" transform="translate(46,46)"/>
<path d="M0 0 C2.5 0.3125 2.5 0.3125 5 1 C5.33 1.66 5.66 2.32 6 3 C3 5 3 5 0 5 C-0.5625 3.0625 -0.5625 3.0625 -1 1 C-0.67 0.67 -0.34 0.34 0 0 Z " fill="#B21353" transform="translate(45,34)"/>
<path d="M0 0 C2.0625 0.25 2.0625 0.25 4 1 C4.33 1.66 4.66 2.32 5 3 C3.68 3 2.36 3 1 3 C0.01 4.485 0.01 4.485 -1 6 C-1.99 6 -2.98 6 -4 6 C-2.84826645 3.53199953 -1.95216435 1.95216435 0 0 Z " fill="#A91846" transform="translate(29,26)"/>
<path d="M0 0 C6.75 0.875 6.75 0.875 9 2 C9 2.66 9 3.32 9 4 C5.625 3.6875 5.625 3.6875 2 3 C1.34 2.01 0.68 1.02 0 0 Z " fill="#1D0009" transform="translate(41,112)"/>
<path d="M0 0 C1.4606285 2.64738916 2 3.89448334 2 7 C-0.4375 6.1875 -0.4375 6.1875 -3 5 C-3.33 4.01 -3.66 3.02 -4 2 C-2.68 2 -1.36 2 0 2 C0 1.34 0 0.68 0 0 Z " fill="#1C0208" transform="translate(49,84)"/>
<path d="M0 0 C0.66 1.32 1.32 2.64 2 4 C-0.62438979 5.74959319 -1.96547627 6.62068453 -5 7 C-5.99 6.34 -6.98 5.68 -8 5 C-5.36 4.34 -2.72 3.68 0 3 C0 2.01 0 1.02 0 0 Z " fill="#43031D" transform="translate(46,68)"/>
<path d="M0 0 C1.1875 1.625 1.1875 1.625 2 4 C0.625 7.25 0.625 7.25 -1 10 C-1.33 10 -1.66 10 -2 10 C-2 7.36 -2 4.72 -2 2 C-1.34 2 -0.68 2 0 2 C0 1.34 0 0.68 0 0 Z " fill="#140103" transform="translate(36,57)"/>
<path d="M0 0 C0 0.33 0 0.66 0 1 C-1.11375 1.2475 -2.2275 1.495 -3.375 1.75 C-7.04615198 2.61005339 -7.04615198 2.61005339 -8.4375 5.125 C-8.623125 5.74375 -8.80875 6.3625 -9 7 C-9.66 5.35 -10.32 3.7 -11 2 C-7.17010894 0.19769832 -4.21878192 -0.19622241 0 0 Z " fill="#8B1147" transform="translate(67,48)"/>
<path d="M0 0 C1.32 0.66 2.64 1.32 4 2 C3.67 3.32 3.34 4.64 3 6 C1.68 5.34 0.36 4.68 -1 4 C-0.67 2.68 -0.34 1.36 0 0 Z " fill="#7C0B54" transform="translate(89,88)"/>
<path d="M0 0 C1.89213369 2.38573379 3.02391783 4.07175348 4 7 C3.01 8.485 3.01 8.485 2 10 C0.68 7.03 -0.64 4.06 -2 1 C-1.34 0.67 -0.68 0.34 0 0 Z " fill="#34021F" transform="translate(74,80)"/>
<path d="M0 0 C0.66 0 1.32 0 2 0 C2 1.98 2 3.96 2 6 C2.66 6 3.32 6 4 6 C4 6.66 4 7.32 4 8 C2.0625 7.6875 2.0625 7.6875 0 7 C-1.04449911 3.86650268 -0.93423645 3.01031744 0 0 Z " fill="#96045A" transform="translate(92,78)"/>
<path d="M0 0 C0.33 0.99 0.66 1.98 1 3 C-4.41538462 4.23076923 -4.41538462 4.23076923 -7.375 3.0625 C-7.91125 2.711875 -8.4475 2.36125 -9 2 C-3.375 0 -3.375 0 0 0 Z " fill="#360527" transform="translate(101,48)"/>
<path d="M0 0 C0.33 1.98 0.66 3.96 1 6 C-0.65 5.67 -2.3 5.34 -4 5 C-4 3.68 -4 2.36 -4 1 C-2 0 -2 0 0 0 Z " fill="#160208" transform="translate(88,42)"/>
<path d="M0 0 C0.66 0.33 1.32 0.66 2 1 C2 1.66 2 2.32 2 3 C2.66 3.33 3.32 3.66 4 4 C-0.75 7 -0.75 7 -3 7 C-2.38722388 4.03824877 -1.74627478 2.61941217 0 0 Z " fill="#370312" transform="translate(36,31)"/>
<path d="M0 0 C6.58441558 1.46320346 6.58441558 1.46320346 8.5 3.9375 C9 6 9 6 8 9 C5 5.375 5 5.375 5 2 C3.35 2 1.7 2 0 2 C0 1.34 0 0.68 0 0 Z " fill="#1C0012" transform="translate(98,25)"/>
<path d="M0 0 C2.86724686 0.57344937 3.8614515 0.8614515 6 3 C5.625 5.125 5.625 5.125 5 7 C4.34 7 3.68 7 3 7 C3 5.68 3 4.36 3 3 C2.01 3 1.02 3 0 3 C0 2.01 0 1.02 0 0 Z " fill="#C0075C" transform="translate(59,108)"/>
<path d="M0 0 C2.97 0.495 2.97 0.495 6 1 C5.67 2.32 5.34 3.64 5 5 C3.68 5 2.36 5 1 5 C0.67 3.35 0.34 1.7 0 0 Z " fill="#BF0C53" transform="translate(48,105)"/>
<path d="M0 0 C6.15234375 0.5859375 6.15234375 0.5859375 8 1 C8.33 1.66 8.66 2.32 9 3 C5.62182575 3.84454356 3.32534757 4.10844919 0 3 C0 2.01 0 1.02 0 0 Z " fill="#95055D" transform="translate(86,102)"/>
<path d="M0 0 C-3 2 -3 2 -5.625 1.75 C-6.40875 1.5025 -7.1925 1.255 -8 1 C-8.33 0.34 -8.66 -0.32 -9 -1 C-5.22102349 -2.0497157 -3.35080929 -2.10976881 0 0 Z " fill="#390323" transform="translate(80,104)"/>
<path d="M0 0 C0.99 0 1.98 0 3 0 C2.67 1.98 2.34 3.96 2 6 C-0.475 5.01 -0.475 5.01 -3 4 C-3 3.34 -3 2.68 -3 2 C-2.01 2 -1.02 2 0 2 C0 1.34 0 0.68 0 0 Z " fill="#A80A57" transform="translate(64,96)"/>
<path d="M0 0 C-0.33 0.99 -0.66 1.98 -1 3 C-1.61875 2.79375 -2.2375 2.5875 -2.875 2.375 C-3.57625 2.25125 -4.2775 2.1275 -5 2 C-5.66 2.66 -6.32 3.32 -7 4 C-7 2.68 -7 1.36 -7 0 C-4.3333581 -1.33332095 -2.83319697 -0.67102033 0 0 Z " fill="#C10B58" transform="translate(52,94)"/>
<path d="M0 0 C0.66 0.33 1.32 0.66 2 1 C1.67 1.5775 1.34 2.155 1 2.75 C-0.27075898 5.19883862 -0.27075898 5.19883862 0 9 C-1.32 8.34 -2.64 7.68 -4 7 C-2.92598892 4.08482708 -2.22189824 2.22189824 0 0 Z " fill="#9A1149" transform="translate(54,81)"/>
<path d="M0 0 C-0.33 1.65 -0.66 3.3 -1 5 C-2.65 4.67 -4.3 4.34 -6 4 C-5.67 3.01 -5.34 2.02 -5 1 C-2 0 -2 0 0 0 Z " fill="#B61053" transform="translate(48,54)"/>
<path d="M0 0 C0.66 0.33 1.32 0.66 2 1 C2 2.65 2 4.3 2 6 C0.35 6.33 -1.3 6.66 -3 7 C-3.33 6.01 -3.66 5.02 -4 4 C-2.68 4 -1.36 4 0 4 C0 2.68 0 1.36 0 0 Z " fill="#9B0F4B" transform="translate(56,42)"/>
<path d="M0 0 C0.33 0.66 0.66 1.32 1 2 C0.67 2.66 0.34 3.32 0 4 C0.99 4 1.98 4 3 4 C3.33 3.01 3.66 2.02 4 1 C4.33 2.65 4.66 4.3 5 6 C2.03 5.505 2.03 5.505 -1 5 C-1.33 5.66 -1.66 6.32 -2 7 C-2.33 6.01 -2.66 5.02 -3 4 C-1.5625 1.8125 -1.5625 1.8125 0 0 Z " fill="#3B0418" transform="translate(42,43)"/>
<path d="M0 0 C1.65 0 3.3 0 5 0 C5 1.98 5 3.96 5 6 C4.67 5.01 4.34 4.02 4 3 C2.68 3.33 1.36 3.66 0 4 C0 2.68 0 1.36 0 0 Z " fill="#810D5E" transform="translate(86,68)"/>
<path d="M0 0 C1.65 0 3.3 0 5 0 C5 1.32 5 2.64 5 4 C3.35 3.67 1.7 3.34 0 3 C0 2.01 0 1.02 0 0 Z " fill="#8F0267" transform="translate(97,57)"/>
<path d="M0 0 C1.98 0.66 3.96 1.32 6 2 C5.01 2.495 5.01 2.495 4 3 C4 3.66 4 4.32 4 5 C2.68 4.34 1.36 3.68 0 3 C0 2.01 0 1.02 0 0 Z " fill="#810560" transform="translate(98,31)"/>
<path d="M0 0 C1.65 0 3.3 0 5 0 C4.01 0.495 4.01 0.495 3 1 C3 1.99 3 2.98 3 4 C3.66 4.33 4.32 4.66 5 5 C3.68 5.33 2.36 5.66 1 6 C0.67 4.02 0.34 2.04 0 0 Z " fill="#9E114C" transform="translate(55,29)"/>
<path d="M0 0 C0.721875 0.185625 1.44375 0.37125 2.1875 0.5625 C5.12826973 1.01995307 7.14103058 0.73516357 10 0 C8.35 1.32 6.7 2.64 5 4 C1.125 2.25 1.125 2.25 0 0 Z " fill="#AF164D" transform="translate(35,26)"/>
<path d="M0 0 C2.475 0.495 2.475 0.495 5 1 C5.625 3.375 5.625 3.375 6 6 C5.34 6.66 4.68 7.32 4 8 C4 6.68 4 5.36 4 4 C3.34 4 2.68 4 2 4 C2 3.34 2 2.68 2 2 C1.34 2 0.68 2 0 2 C0 1.34 0 0.68 0 0 Z " fill="#6A0E48" transform="translate(91,21)"/>
<path d="M0 0 C0.99 0.99 1.98 1.98 3 3 C1.625 5.5 1.625 5.5 0 8 C-0.66 8 -1.32 8 -2 8 C-1.34 5.36 -0.68 2.72 0 0 Z " fill="#32011F" transform="translate(85,17)"/>
<path d="M0 0 C0.66 0.99 1.32 1.98 2 3 C1.125 5.6875 1.125 5.6875 0 8 C-1.32 7.01 -2.64 6.02 -4 5 C-3.34 4.67 -2.68 4.34 -2 4 C-0.86649466 1.98330173 -0.86649466 1.98330173 0 0 Z " fill="#370115" transform="translate(42,104)"/>
<path d="M0 0 C1.32 0.99 2.64 1.98 4 3 C2.35 4.32 0.7 5.64 -1 7 C-1.66 6.34 -2.32 5.68 -3 5 C-2.01 3.35 -1.02 1.7 0 0 Z " fill="#4B041F" transform="translate(45,88)"/>
<path d="M0 0 C0.33 0.99 0.66 1.98 1 3 C3.97 3.33 6.94 3.66 10 4 C10 4.33 10 4.66 10 5 C2.25 6.125 2.25 6.125 0 5 C0 3.35 0 1.7 0 0 Z " fill="#33031E" transform="translate(105,73)"/>
<path d="M0 0 C0.66 0 1.32 0 2 0 C2 2.31 2 4.62 2 7 C1.01 7.33 0.02 7.66 -1 8 C-0.67 5.36 -0.34 2.72 0 0 Z " fill="#83065F" transform="translate(108,67)"/>
<path d="M0 0 C0.99 0.33 1.98 0.66 3 1 C2.34 1 1.68 1 1 1 C0.67 3.31 0.34 5.62 0 8 C-0.99 7.67 -1.98 7.34 -3 7 C-1.125 1.125 -1.125 1.125 0 0 Z " fill="#930F4E" transform="translate(71,51)"/>
<path d="M0 0 C0.33 0 0.66 0 1 0 C1 2.31 1 4.62 1 7 C-0.65 7 -2.3 7 -4 7 C-4.33 6.34 -4.66 5.68 -5 5 C-3.68 5 -2.36 5 -1 5 C-0.67 3.35 -0.34 1.7 0 0 Z " fill="#AA0A50" transform="translate(68,38)"/>
<path d="M0 0 C2.64 0 5.28 0 8 0 C8.33 0.99 8.66 1.98 9 3 C2.84765625 2.4140625 2.84765625 2.4140625 1 2 C0.67 1.34 0.34 0.68 0 0 Z " fill="#11010C" transform="translate(70,36)"/>
<path d="M0 0 C0.66 0 1.32 0 2 0 C1.67 2.64 1.34 5.28 1 8 C0.01 7.34 -0.98 6.68 -2 6 C-1.34 4.02 -0.68 2.04 0 0 Z " fill="#3D011C" transform="translate(55,107)"/>
<path d="M0 0 C0.66 0.99 1.32 1.98 2 3 C0.02 3.99 0.02 3.99 -2 5 C-2 4.34 -2 3.68 -2 3 C-2.99 3 -3.98 3 -5 3 C-5.33 3.66 -5.66 4.32 -6 5 C-6 4.01 -6 3.02 -6 2 C-4.02 1.34 -2.04 0.68 0 0 Z " fill="#2C0118" transform="translate(88,96)"/>
<path d="M0 0 C0.66 0 1.32 0 2 0 C2 2.97 2 5.94 2 9 C1.34 9 0.68 9 0 9 C-0.87890625 2.84765625 -0.87890625 2.84765625 -1 1 C-0.67 0.67 -0.34 0.34 0 0 Z " fill="#47021F" transform="translate(56,95)"/>
<path d="M0 0 C1.32 0.33 2.64 0.66 4 1 C3.67 1.99 3.34 2.98 3 4 C1.02 4.33 -0.96 4.66 -3 5 C-2.01 4.67 -1.02 4.34 0 4 C0 2.68 0 1.36 0 0 Z " fill="#190208" transform="translate(73,76)"/>
<path d="M0 0 C1.65 0 3.3 0 5 0 C5 1.32 5 2.64 5 4 C3.02 3.34 1.04 2.68 -1 2 C-0.67 1.34 -0.34 0.68 0 0 Z " fill="#E00753" transform="translate(29,74)"/>
<path d="M0 0 C0.66 0.66 1.32 1.32 2 2 C1.625 5.125 1.625 5.125 1 8 C0.01 7.67 -0.98 7.34 -2 7 C-1.34 4.69 -0.68 2.38 0 0 Z " fill="#40031F" transform="translate(60,70)"/>
<path d="M0 0 C2.97 0 5.94 0 9 0 C9.33 0.66 9.66 1.32 10 2 C8.02 2.33 6.04 2.66 4 3 C4 2.34 4 1.68 4 1 C2.68 0.67 1.36 0.34 0 0 Z " fill="#47011A" transform="translate(48,65)"/>
<path d="M0 0 C0.99 0 1.98 0 3 0 C3 1.32 3 2.64 3 4 C2.01 4 1.02 4 0 4 C-0.33 4.66 -0.66 5.32 -1 6 C-1.33 4.68 -1.66 3.36 -2 2 C-1.34 2 -0.68 2 0 2 C0 1.34 0 0.68 0 0 Z " fill="#C60E55" transform="translate(42,63)"/>
<path d="M0 0 C1.65 0 3.3 0 5 0 C4.67 1.32 4.34 2.64 4 4 C2.68 3.67 1.36 3.34 0 3 C0 2.01 0 1.02 0 0 Z " fill="#910861" transform="translate(82,32)"/>
<path d="M0 0 C0.33 0 0.66 0 1 0 C1 1.65 1 3.3 1 5 C1.66 5 2.32 5 3 5 C3 6.32 3 7.64 3 9 C2.01 9 1.02 9 0 9 C0 6.03 0 3.06 0 0 Z " fill="#4C0322" transform="translate(65,25)"/>
<path d="M0 0 C2.31 0.66 4.62 1.32 7 2 C6.67 3.32 6.34 4.64 6 6 C5.34 6 4.68 6 4 6 C3.67 5.01 3.34 4.02 3 3 C2.01 2.67 1.02 2.34 0 2 C0 1.34 0 0.68 0 0 Z " fill="#12020B" transform="translate(76,24)"/>
<path d="M0 0 C1.32 0.33 2.64 0.66 4 1 C4 2.32 4 3.64 4 5 C1 5 1 5 -0.6875 3.5 C-1.120625 3.005 -1.55375 2.51 -2 2 C-1.34 2 -0.68 2 0 2 C0 1.34 0 0.68 0 0 Z " fill="#220113" transform="translate(90,16)"/>
</svg>
